<svg width="116" height="138" viewBox="0 0 116 138" fill="none" xmlns="http://www.w3.org/2000/svg">
<path d="M89.8727 112.605C82.3866 122.326 42.4609 122.604 26.9342 112.605C11.4075 102.605 20.8345 87.0508 20.8345 87.0508C24.9934 64.2746 37.7475 38.1652 49.3925 21.2219C61.0374 4.27868 92.3681 58.7194 96.2497 78.718C100.131 98.7167 97.3589 102.883 89.8727 112.605Z" fill="#FFA42F"/>
<path d="M35.5293 101.772C46.2261 102.883 52.9313 104.827 65.1964 108.716C77.4614 112.605 77.4614 118.476 77.4614 118.476C62.2121 121.696 38.1769 119.845 26.9342 112.605C18.371 107.09 17.3985 99.8852 18.2481 94.5322C18.2481 94.5322 24.8325 100.661 35.5293 101.772Z" fill="#F18A0A"/>
<path d="M49.3925 21.2219C52.4938 16.7096 56.9913 17.2606 61.9949 20.8756C61.9949 20.8756 64.0874 40.3875 49.3925 53.1642C34.6975 65.9409 24.8325 71.3279 24.8325 71.3279C30.672 52.9996 40.3652 34.3565 49.3925 21.2219Z" fill="#F18A0A"/>
<path d="M55.0786 9.00229C55.0818 9.00232 55.0852 9.00127 55.0884 9.00131C55.1148 9.00163 55.1411 9.00379 55.1675 9.00424C55.2815 9.00613 55.3951 9.00873 55.5083 9.01303C55.5553 9.01483 55.6021 9.01766 55.6489 9.01987C55.7528 9.02473 55.8563 9.02963 55.9595 9.03647C55.9957 9.03887 56.0318 9.04164 56.0679 9.04428C56.1868 9.05297 56.3053 9.06333 56.4233 9.07455C56.4308 9.07527 56.4383 9.07579 56.4458 9.07651C56.5851 9.08995 56.7238 9.10554 56.8618 9.12241C56.8722 9.12368 56.8826 9.12502 56.8931 9.12631C57.0133 9.14124 57.1332 9.15673 57.2524 9.17416C57.3023 9.18145 57.3521 9.18891 57.4019 9.19662C57.4888 9.21012 57.5753 9.22482 57.6616 9.23959C57.7197 9.24951 57.7776 9.25938 57.8354 9.26987C57.9223 9.28564 58.0089 9.30166 58.0952 9.3187C58.1383 9.32719 58.1812 9.33626 58.2241 9.34506C58.334 9.3676 58.4434 9.39088 58.5522 9.41537C58.5744 9.42036 58.5965 9.42593 58.6187 9.431C58.7341 9.45742 58.849 9.48449 58.9634 9.51303C58.9904 9.51978 59.0174 9.52668 59.0444 9.53354C59.1438 9.55882 59.2428 9.58485 59.3413 9.61166C59.3853 9.62363 59.4293 9.63553 59.4731 9.6478C59.5457 9.6681 59.6179 9.68919 59.6899 9.7103C59.7588 9.73045 59.8275 9.75094 59.896 9.77182C59.9898 9.80045 60.0832 9.8298 60.1763 9.85971C60.201 9.86765 60.2258 9.87512 60.2505 9.88315C60.4249 9.94 60.5976 9.99978 60.769 10.0609C60.9688 10.132 61.1667 10.2059 61.3628 10.2826C61.4087 10.3005 61.4548 10.318 61.5005 10.3363C61.6955 10.4141 61.8884 10.4948 62.0796 10.5775C62.1138 10.5923 62.1481 10.6065 62.1821 10.6214C62.3599 10.6993 62.5351 10.7809 62.7095 10.8626C62.84 10.9238 62.9689 10.9871 63.0972 11.0501C63.2034 11.1023 63.3096 11.1539 63.4146 11.2074C63.5498 11.2762 63.6833 11.3468 63.8159 11.4173C63.9113 11.4681 64.0068 11.518 64.1011 11.5697C64.2187 11.6341 64.3343 11.7005 64.4497 11.766C64.5645 11.8312 64.6795 11.895 64.7925 11.9613C65.214 12.2087 65.6205 12.4607 66.0093 12.7152C66.0153 12.7191 66.0208 12.7239 66.0269 12.7279C66.0365 12.7342 66.0465 12.7401 66.0562 12.7464C66.2518 12.875 66.4468 13.0073 66.6421 13.1419C66.6933 13.1772 66.7438 13.2131 66.7944 13.2484C66.9376 13.3483 67.0812 13.449 67.2241 13.5521C67.2376 13.5618 67.2517 13.5707 67.2651 13.5804C67.2767 13.5888 67.2878 13.5984 67.2993 13.6068C72.965 17.7144 78.4218 24.2502 83.1108 30.9632C88.313 38.4109 93.1974 46.9935 97.0454 55.0267C100.825 62.9172 103.896 70.8819 105.084 77.0033C107.073 87.2487 107.693 94.8906 106.075 101.619C104.419 108.504 100.619 113.4 97.0034 118.096C93.1461 123.105 86.5905 125.532 81.2095 126.853C80.6224 126.997 80.0245 127.13 79.4185 127.259C79.3858 127.266 79.3536 127.276 79.3208 127.283C79.2592 127.296 79.1971 127.307 79.1353 127.32C78.9932 127.349 78.8505 127.378 78.7075 127.407C78.5251 127.443 78.3419 127.48 78.1577 127.515C77.8981 127.565 77.637 127.613 77.3745 127.66C77.172 127.697 76.9686 127.733 76.7642 127.768C76.6158 127.793 76.467 127.818 76.3179 127.842C76.0959 127.879 75.8729 127.915 75.6489 127.95C75.5079 127.971 75.3668 127.994 75.2251 128.015C74.9899 128.05 74.7534 128.083 74.5161 128.117C74.2868 128.149 74.0566 128.18 73.8257 128.21C73.6109 128.238 73.3955 128.267 73.1792 128.293C72.9854 128.317 72.791 128.34 72.5962 128.363C72.4543 128.379 72.312 128.395 72.1694 128.41C71.9654 128.433 71.7611 128.457 71.5562 128.478C71.2356 128.511 70.9136 128.543 70.5903 128.574C70.4162 128.59 70.2416 128.604 70.0669 128.619C69.8668 128.637 69.6663 128.654 69.4653 128.67C69.3112 128.683 69.157 128.696 69.0024 128.707C68.7191 128.729 68.4349 128.749 68.1499 128.768C68.0029 128.778 67.8558 128.788 67.7085 128.797C67.415 128.816 67.1207 128.832 66.8257 128.848C66.6293 128.859 66.4327 128.869 66.2358 128.878C66.058 128.887 65.8799 128.894 65.7017 128.902C65.5201 128.909 65.3385 128.918 65.1567 128.925C64.9766 128.932 64.7963 128.937 64.6157 128.943C64.2554 128.954 63.8947 128.964 63.5337 128.972C63.3415 128.976 63.1491 128.981 62.9565 128.984C62.7688 128.987 62.5809 128.989 62.3931 128.992C62.2506 128.993 62.108 128.994 61.9653 128.995C61.7912 128.997 61.617 129 61.4429 129C61.2751 129.001 61.1071 128.999 60.939 128.998C60.7005 128.998 60.4619 128.997 60.2231 128.995C60.0956 128.994 59.968 128.992 59.8403 128.991C59.5956 128.988 59.3508 128.984 59.106 128.98C58.9046 128.976 58.7031 128.972 58.5015 128.967C58.3175 128.963 58.1336 128.957 57.9497 128.952C57.7191 128.945 57.4883 128.938 57.2573 128.93C56.9633 128.92 56.6693 128.909 56.3755 128.897C56.162 128.888 55.9485 128.877 55.7349 128.867C55.5701 128.859 55.4054 128.85 55.2407 128.841C55.038 128.83 54.8351 128.82 54.6323 128.808C54.3231 128.79 54.0142 128.77 53.7056 128.749C53.5128 128.736 53.3202 128.722 53.1274 128.708C52.9147 128.693 52.7021 128.678 52.4897 128.661C52.2696 128.644 52.0496 128.626 51.8296 128.608C51.6552 128.593 51.4811 128.577 51.3071 128.562C51.1167 128.545 50.9261 128.529 50.7358 128.511C50.4126 128.481 50.0899 128.449 49.7681 128.415C49.7449 128.413 49.7219 128.41 49.6987 128.408C49.5495 128.392 49.4005 128.375 49.2515 128.359C48.972 128.328 48.692 128.298 48.4116 128.265C48.3123 128.253 48.213 128.242 48.1138 128.23C47.7235 128.183 47.3324 128.135 46.9409 128.083C46.8891 128.077 46.8374 128.069 46.7856 128.062C46.4438 128.016 46.1016 127.969 45.7593 127.92C45.6449 127.904 45.5307 127.887 45.4165 127.87C45.1154 127.826 44.8144 127.78 44.5132 127.733C44.424 127.719 44.3347 127.706 44.2456 127.692C43.8529 127.629 43.4602 127.564 43.0679 127.496C43.0085 127.486 42.9494 127.475 42.8901 127.464C42.5614 127.407 42.2329 127.347 41.9048 127.286C41.8146 127.27 41.7243 127.254 41.6343 127.237C41.2721 127.168 40.9103 127.098 40.5493 127.025C40.5241 127.02 40.4984 127.015 40.4731 127.01C40.4376 127.003 40.4022 126.995 40.3667 126.988C40.0372 126.92 39.7085 126.85 39.3804 126.779C39.2664 126.754 39.1525 126.729 39.0386 126.703C38.7509 126.64 38.4637 126.575 38.1772 126.508C38.0815 126.486 37.9858 126.463 37.8901 126.441C37.5228 126.354 37.1563 126.265 36.7915 126.173C36.7413 126.16 36.6913 126.147 36.6411 126.134C36.3409 126.058 36.0418 125.979 35.7437 125.899C35.607 125.862 35.4708 125.824 35.3345 125.786C35.0594 125.711 34.7853 125.634 34.5122 125.555C34.4224 125.529 34.3323 125.504 34.2427 125.478C33.9011 125.378 33.5611 125.276 33.2231 125.171C33.0454 125.116 32.8688 125.058 32.6919 125.001C32.5343 124.951 32.3769 124.901 32.2202 124.849C32.0298 124.786 31.8402 124.722 31.6509 124.658C31.4551 124.591 31.2602 124.523 31.0659 124.454C30.9327 124.407 30.7992 124.362 30.6665 124.314C30.3465 124.198 30.0287 124.081 29.7134 123.96C29.5639 123.903 29.4156 123.844 29.2671 123.785C29.078 123.711 28.8899 123.636 28.7026 123.56C28.5192 123.485 28.3357 123.412 28.1538 123.335C28.1343 123.327 28.1147 123.319 28.0952 123.311C27.5811 123.094 27.0738 122.869 26.5737 122.636C26.5349 122.618 26.4963 122.6 26.4575 122.581C25.9717 122.354 25.4927 122.119 25.022 121.876C24.9767 121.853 24.9314 121.83 24.8862 121.806C24.675 121.696 24.4652 121.584 24.2573 121.471C24.2371 121.46 24.217 121.449 24.1968 121.438C23.9611 121.309 23.7277 121.177 23.4966 121.044C23.4767 121.033 23.4568 121.022 23.437 121.01C23.2408 120.897 23.0467 120.781 22.854 120.664C22.7986 120.631 22.7431 120.598 22.688 120.564C22.4771 120.435 22.2676 120.304 22.061 120.171C21.8747 120.051 21.6905 119.93 21.5083 119.808C21.4844 119.792 21.4609 119.775 21.437 119.759C21.2969 119.665 21.1576 119.57 21.02 119.475C20.9906 119.455 20.9614 119.434 20.9321 119.413C20.6305 119.203 20.335 118.989 20.0454 118.773C19.9986 118.738 19.9522 118.702 19.9058 118.667C19.8058 118.592 19.7065 118.516 19.6079 118.44C19.5395 118.387 19.4715 118.334 19.4038 118.281C19.3233 118.217 19.2431 118.154 19.1636 118.09C19.1084 118.046 19.0533 118.002 18.9985 117.957C18.8874 117.867 18.7777 117.776 18.6685 117.685C18.6253 117.649 18.5815 117.614 18.5386 117.577C17.8052 116.959 17.1168 116.321 16.4712 115.664C16.4235 115.616 16.3768 115.567 16.3296 115.518C16.2657 115.452 16.2012 115.387 16.1382 115.321C16.065 115.244 15.9924 115.167 15.9204 115.089C15.8539 115.018 15.7887 114.945 15.7231 114.873C15.6837 114.83 15.6441 114.787 15.605 114.743C15.5305 114.661 15.4565 114.578 15.3833 114.494C15.3359 114.44 15.2886 114.387 15.2417 114.332C15.142 114.217 15.043 114.102 14.9458 113.986C14.9295 113.966 14.9132 113.947 14.897 113.927C14.8222 113.837 14.7495 113.746 14.6763 113.656C14.6356 113.605 14.5944 113.556 14.5542 113.505C14.4912 113.426 14.4286 113.347 14.3667 113.268C14.32 113.208 14.2731 113.148 14.2271 113.088C14.0206 112.819 13.8204 112.547 13.6265 112.273C13.5817 112.21 13.5377 112.146 13.4937 112.082C13.3437 111.866 13.1974 111.649 13.0552 111.43C12.9866 111.325 12.9188 111.219 12.8521 111.113C12.8277 111.074 12.803 111.035 12.7788 110.996C12.7274 110.914 12.6768 110.831 12.6265 110.747C12.5782 110.668 12.5302 110.588 12.4829 110.508C12.4557 110.462 12.4297 110.416 12.4028 110.369C12.3483 110.276 12.2939 110.182 12.2407 110.088C12.207 110.029 12.1743 109.968 12.1411 109.909C12.0958 109.827 12.0506 109.745 12.0063 109.663C11.9658 109.588 11.9259 109.513 11.8862 109.438C11.8614 109.391 11.8365 109.344 11.812 109.296C11.7626 109.201 11.7136 109.106 11.6655 109.01C11.6131 108.906 11.5611 108.801 11.5103 108.697C11.4923 108.66 11.4753 108.622 11.4575 108.585C11.3821 108.428 11.3068 108.27 11.2349 108.112C11.03 107.66 10.8432 107.209 10.6704 106.759C10.6654 106.746 10.6588 106.733 10.6538 106.72C10.6387 106.68 10.6248 106.64 10.6099 106.601C10.5117 106.34 10.4185 106.08 10.3306 105.821C10.3197 105.788 10.3091 105.756 10.2983 105.724C10.1034 105.14 9.93315 104.56 9.78662 103.984C9.71442 103.7 9.64861 103.417 9.5874 103.136C9.57308 103.07 9.55915 103.004 9.54541 102.939C9.4978 102.711 9.45337 102.485 9.4126 102.259C9.41071 102.249 9.40861 102.238 9.40674 102.228C9.3612 101.974 9.32096 101.721 9.28369 101.47C9.27997 101.445 9.27562 101.42 9.27197 101.395C9.2386 101.165 9.20892 100.937 9.18213 100.709C9.17494 100.648 9.16738 100.588 9.16064 100.527C9.14442 100.38 9.13226 100.234 9.11865 100.088C9.10503 99.9428 9.09166 99.798 9.08057 99.6537C9.07099 99.5288 9.06194 99.4045 9.0542 99.2806C9.04294 99.1009 9.03342 98.9222 9.02588 98.7445C9.02221 98.6576 9.01892 98.5711 9.01611 98.4847C9.00968 98.2878 9.00554 98.0921 9.00342 97.8978C9.00257 97.8188 9.00163 97.74 9.00146 97.6615C9.00092 97.42 9.00362 97.1807 9.00928 96.9437C9.00943 96.9375 9.00912 96.9313 9.00928 96.9251C9.02246 96.3883 9.04991 95.8633 9.09131 95.3519C9.13165 94.8535 9.18544 94.3653 9.24854 93.888C9.26095 93.794 9.27442 93.7007 9.2876 93.6078C9.30681 93.4724 9.32636 93.3379 9.34717 93.2044C9.35148 93.1768 9.35451 93.149 9.35889 93.1214L9.37646 93.0247C9.81414 90.3242 10.5627 88.0205 11.2397 86.3158C11.5948 85.4217 11.9447 84.6589 12.2437 84.0501C13.2325 78.992 14.5964 73.8199 16.2437 68.6439C16.2486 68.6281 16.2523 68.6118 16.2573 68.596C16.275 68.5407 16.2933 68.4854 16.311 68.43C16.6658 67.3207 17.0338 66.2113 17.4136 65.1029C17.4427 65.0179 17.4722 64.933 17.5015 64.848C17.8937 63.7089 18.2976 62.5706 18.7144 61.4349C18.7364 61.3748 18.7577 61.3144 18.7798 61.2542C19.1847 60.1543 19.6009 59.0567 20.0269 57.9622C20.0697 57.8521 20.1136 57.7423 20.1567 57.6322C20.8086 55.9665 21.483 54.3085 22.1782 52.6624C22.4631 51.9879 22.7519 51.3155 23.0435 50.6449C23.1275 50.4515 23.2128 50.2587 23.2974 50.0658C23.5211 49.5552 23.7458 49.0454 23.9731 48.5374C24.0983 48.2578 24.2258 47.9793 24.3521 47.7005C24.5438 47.2771 24.7361 46.8543 24.9302 46.433C25.0339 46.2078 25.1374 45.9827 25.2417 45.7581C25.8662 44.414 26.5017 43.0811 27.147 41.7621C27.25 41.5516 27.3541 41.3419 27.4575 41.1322C27.7058 40.6287 27.9557 40.1275 28.2065 39.6283C28.2924 39.4575 28.3782 39.2868 28.4644 39.1165C29.471 37.1263 30.4964 35.1712 31.5356 33.2601C31.6318 33.0832 31.7283 32.9069 31.8247 32.7308C32.0985 32.2306 32.3735 31.7336 32.6489 31.2396C32.7336 31.0878 32.8171 30.9357 32.9019 30.7845C33.6075 29.5262 34.3187 28.2898 35.0317 27.0765C35.1066 26.9491 35.1824 26.8225 35.2573 26.6956C35.5351 26.2253 35.8128 25.7582 36.0913 25.2953C36.1997 25.115 36.308 24.9353 36.4165 24.7562C36.7001 24.2881 36.9832 23.8236 37.2671 23.3636C37.3271 23.2665 37.3868 23.1694 37.4468 23.0726C37.7904 22.5182 38.1344 21.97 38.478 21.4281C38.5507 21.3134 38.6241 21.1994 38.6968 21.0853C39.0011 20.6076 39.3049 20.1347 39.6089 19.6673C39.689 19.5441 39.77 19.4217 39.8501 19.2992C40.0982 18.9197 40.3456 18.5435 40.5933 18.1712C40.7204 17.9802 40.8472 17.79 40.9741 17.6009C41.3088 17.1022 41.6417 16.6094 41.9751 16.1244C42.1147 15.9213 42.2594 15.7222 42.4058 15.5257C42.4462 15.4714 42.4858 15.4165 42.5269 15.3626C42.5684 15.3082 42.6108 15.2545 42.6528 15.2005C42.7128 15.1235 42.7733 15.047 42.8345 14.971C42.8796 14.915 42.9255 14.8595 42.9712 14.804C43.0206 14.7441 43.0695 14.6836 43.1196 14.6244C43.1671 14.5683 43.2151 14.5128 43.2632 14.4574C43.3188 14.3932 43.3747 14.3293 43.4312 14.266C43.4737 14.2183 43.5171 14.1715 43.5601 14.1244C43.6338 14.0434 43.7085 13.9635 43.7837 13.8841C43.8036 13.863 43.8232 13.8416 43.8433 13.8206C43.933 13.7267 44.024 13.6341 44.1157 13.5423C44.1393 13.5187 44.1633 13.4955 44.187 13.472C44.2799 13.3802 44.3734 13.2891 44.4683 13.1996C44.4833 13.1853 44.4981 13.1708 44.5132 13.1566C44.6072 13.0684 44.7024 12.9817 44.7983 12.8958C44.8281 12.8692 44.8583 12.8431 44.8882 12.8167C44.9683 12.746 45.0489 12.6759 45.1304 12.6068C45.1681 12.5748 45.2057 12.5427 45.2437 12.5111C45.334 12.4358 45.4252 12.3616 45.5171 12.2884C45.5448 12.2663 45.5722 12.2439 45.6001 12.222C46.5738 11.4569 47.6343 10.8066 48.7759 10.2943C48.8435 10.2639 48.9118 10.2348 48.98 10.2054C49.0572 10.1722 49.1344 10.1388 49.2124 10.1068C49.2623 10.0863 49.3127 10.0672 49.3628 10.0472C49.4648 10.0067 49.5672 9.96644 49.6704 9.92807C49.7213 9.90912 49.7725 9.89081 49.8237 9.87241C49.9087 9.84192 49.9938 9.81155 50.0796 9.78256C50.1587 9.75579 50.2381 9.72991 50.3179 9.70444C50.3821 9.68394 50.4465 9.66354 50.5112 9.64389C50.5977 9.61757 50.6847 9.5925 50.772 9.56772C50.8375 9.54913 50.9032 9.53075 50.9692 9.51303C51.0606 9.48847 51.1525 9.46558 51.2446 9.44272C51.2956 9.43009 51.3467 9.41772 51.3979 9.40561C51.5043 9.38043 51.6109 9.35527 51.7183 9.33237C51.7657 9.32227 51.8132 9.31272 51.8608 9.30307C51.9716 9.28058 52.083 9.25963 52.1948 9.23959C52.2435 9.23087 52.2924 9.22246 52.3413 9.2142C52.4418 9.19724 52.5427 9.18132 52.644 9.16635C52.7119 9.15633 52.7799 9.14716 52.8481 9.13803C52.9422 9.12545 53.0365 9.11275 53.1313 9.1019C53.1963 9.09445 53.2614 9.08803 53.3267 9.08139C53.4324 9.07068 53.5384 9.06064 53.645 9.05209C53.6824 9.04907 53.7199 9.04704 53.7573 9.04428C53.8811 9.03526 54.0054 9.02692 54.1304 9.02084C54.1415 9.02029 54.1525 9.01844 54.1636 9.01791C54.2844 9.01218 54.4049 9.00911 54.5249 9.0062C54.5402 9.00584 54.5555 9.00456 54.5708 9.00424C54.7409 9.00061 54.9101 9.00045 55.0786 9.00229Z" stroke="white" stroke-width="18" stroke-linejoin="round"/>
</svg>
