<svg width="251" height="432" viewBox="0 0 251 432" fill="none" xmlns="http://www.w3.org/2000/svg">
<path d="M108.586 397C93.9383 397 81.0347 394.448 69.8748 389.344C58.7148 384.24 50.1124 377.164 44.0674 368.116C38.0225 358.837 35 348.165 35 336.101C35 325.893 37.0925 316.613 41.2775 308.261C45.6949 299.909 51.5074 293.298 58.7148 288.426C66.1548 283.554 74.2922 281.118 83.1272 281.118C91.2646 281.118 103.006 283.206 108.586 287.382C114.166 291.326 126.023 304.5 126.023 317.657C112 302 92.4271 307.333 85.2197 313.829C78.0122 320.093 74.4085 328.677 74.4085 339.581C74.4085 349.557 77.431 357.561 83.4759 363.592C89.5209 369.624 97.5421 372.64 107.539 372.64C119.862 372.64 129.976 368.58 137.881 360.461C146.018 352.109 150.087 341.669 150.087 329.141C150.087 318.237 147.064 307.913 141.019 298.169C134.974 288.426 125.907 276.594 113.817 262.674C101.262 248.29 91.7296 235.994 85.2197 225.787C78.9422 215.347 75.8035 203.979 75.8035 191.683C75.8035 179.619 79.1747 168.831 85.9171 159.32C92.6596 149.576 101.96 141.92 113.817 136.352C125.674 130.784 139.043 128 153.923 128C172.755 128 187.751 132.408 198.911 141.224C210.304 150.04 216 161.872 216 176.719C216 186.463 213.559 194.351 208.676 200.383C203.794 206.415 197.4 209.431 189.495 209.431C180.66 209.431 173.569 205.835 168.222 198.643C172.639 195.395 176.127 191.103 178.684 185.767C181.241 180.431 182.52 174.863 182.52 169.063C182.52 161.64 180.311 155.724 175.894 151.316C171.477 146.908 165.432 144.704 157.759 144.704C148.459 144.704 140.787 148.068 134.742 154.796C128.929 161.292 126.023 169.643 126.023 179.851C126.023 189.131 128.697 197.831 134.044 205.951C139.392 213.839 147.762 224.047 159.154 236.574C168.454 246.55 175.894 255.134 181.474 262.326C187.286 269.518 192.169 277.87 196.121 287.382C200.306 296.661 202.399 306.753 202.399 317.657C202.399 332.505 198.214 345.961 189.844 358.025C181.706 370.088 170.43 379.6 156.015 386.56C141.833 393.52 126.023 397 108.586 397Z" fill="#FFBA47"/>
<path d="M104 126.749C104 144.781 89.4493 159.399 71.5 159.399C53.5507 159.399 39 144.781 39 126.749C39 108.717 53.5507 94.0989 71.5 94.0989C89.4493 94.0989 104 108.717 104 126.749Z" fill="#D9D9D9"/>
<path d="M120.883 82.6502C120.883 100.682 106.332 115.3 88.3831 115.3C70.4339 115.3 55.8831 100.682 55.8831 82.6502C55.8831 64.618 70.4339 50 88.3831 50C106.332 50 120.883 64.618 120.883 82.6502Z" fill="#D9D9D9"/>
<path d="M169 94.523C169 112.555 154.449 127.173 136.5 127.173C118.551 127.173 104 112.555 104 94.523C104 76.4908 118.551 61.8728 136.5 61.8728C154.449 61.8728 169 76.4908 169 94.523Z" fill="#D9D9D9"/>
<path d="M79.5 180L68.9675 146.678L99.3571 97.9152H152.117L163 131L79.5 180Z" fill="#D9D9D9"/>
<path d="M113 111.749C113 129.781 98.4493 144.399 80.5 144.399C62.5507 144.399 48 129.781 48 111.749C48 93.7169 62.5507 79.0989 80.5 79.0989C98.4493 79.0989 113 93.7169 113 111.749Z" fill="white"/>
<path d="M129.883 67.6502C129.883 85.6824 115.332 100.3 97.3831 100.3C79.4339 100.3 64.8831 85.6824 64.8831 67.6502C64.8831 49.618 79.4339 35 97.3831 35C115.332 35 129.883 49.618 129.883 67.6502Z" fill="white"/>
<path d="M178 79.523C178 97.5552 163.449 112.173 145.5 112.173C127.551 112.173 113 97.5552 113 79.523C113 61.4908 127.551 46.8728 145.5 46.8728C163.449 46.8728 178 61.4908 178 79.523Z" fill="white"/>
<path d="M88.5 165L77.9675 131.678L108.357 82.9152H161.117L172 116L88.5 165Z" fill="white"/>
<path d="M211.854 196.434L173.397 192.586C173.397 192.586 157.294 215.941 107.192 210.928C69.3837 212.27 52.3316 179 52.3316 179C52.3316 179 71.9331 223.877 112.747 228.734C190.488 237.985 211.854 196.434 211.854 196.434Z" fill="#FFBA47"/>
<path d="M148.474 52C161.535 52 172.123 62.5882 172.123 75.6494C172.123 82.5055 169.204 88.6785 164.543 92.998C165.938 89.9822 166.718 86.6232 166.718 83.082C166.718 70.021 156.129 59.4328 143.068 59.4326C136.864 59.4326 131.218 61.8223 127 65.7305C130.751 57.6243 138.955 52 148.474 52Z" fill="#EEEEEE"/>
<path d="M80.4736 83C93.5349 83 104.123 93.5882 104.123 106.649C104.123 113.505 101.204 119.679 96.543 123.998C97.9378 120.982 98.7178 117.623 98.7178 114.082C98.7176 101.021 88.1294 90.4328 75.0684 90.4326C68.8643 90.4326 63.2184 92.8223 59 96.7305C62.7507 88.6243 70.9548 83 80.4736 83Z" fill="#EEEEEE"/>
<path d="M94.3383 39.6505C107.317 38.1867 119.025 47.5215 120.489 60.5004C121.258 67.3133 119.049 73.7746 114.901 78.5893C115.949 75.4361 116.348 72.0108 115.951 68.492C114.487 55.5133 102.779 46.1785 89.8001 47.6421C83.6352 48.3375 78.2927 51.3449 74.5389 55.7012C77.3574 47.2257 84.8795 40.7174 94.3383 39.6505Z" fill="#EEEEEE"/>
<path d="M97.3828 17.5C110.743 17.5 122.849 22.7459 131.803 31.2764C136.153 30.0371 140.747 29.373 145.5 29.373C173.19 29.373 195.5 51.9024 195.5 79.5234C195.5 89.5961 192.53 98.9896 187.417 106.862L188.624 110.531C189.245 112.42 189.527 114.351 189.499 116.253C196.843 118.95 203.637 122.655 209.759 127.491H209.758C225.494 139.731 233.5 156.709 233.5 176.72C233.5 185.089 232.097 193.194 228.855 200.574C228.533 201.899 228.055 203.196 227.417 204.437L227.052 204.248C227.049 204.253 227.047 204.258 227.044 204.263C227.408 204.454 227.406 204.457 227.404 204.461C227.402 204.465 227.396 204.478 227.392 204.486C227.383 204.504 227.373 204.522 227.363 204.54C227.344 204.577 227.323 204.617 227.301 204.659C227.256 204.744 227.205 204.839 227.147 204.943C227.033 205.153 226.894 205.402 226.728 205.688C226.395 206.261 225.956 206.981 225.401 207.824C224.292 209.51 222.712 211.694 220.583 214.176C216.318 219.147 209.856 225.298 200.6 230.973C195.952 233.822 190.689 236.495 184.759 238.831C188.687 243.357 192.175 247.576 195.208 251.48C202.09 260.028 207.728 269.748 212.211 280.497C217.393 292.108 219.898 304.568 219.898 317.657C219.898 336.028 214.649 352.972 204.223 368L204.222 367.999C194.215 382.759 180.522 394.14 163.724 402.27L163.725 402.271C163.704 402.281 163.682 402.29 163.661 402.301C163.649 402.307 163.636 402.313 163.624 402.319L163.623 402.318C146.828 410.54 128.375 414.5 108.586 414.5C91.9061 414.5 76.4398 411.59 62.5967 405.259C48.872 398.982 37.5872 389.918 29.5166 377.838C29.4789 377.781 29.4413 377.725 29.4043 377.668C21.3432 365.293 17.5 351.24 17.5 336.101C17.5 323.428 20.1176 311.427 25.6318 300.422L25.8076 300.079C31.4495 289.412 39.1261 280.543 48.9141 273.927C48.9848 273.879 49.0565 273.832 49.1279 273.785C59.3971 267.061 70.8625 263.618 83.127 263.618C85.9366 263.618 88.9842 263.802 92.0928 264.164C83.2176 253.487 75.9616 243.815 70.4648 235.196C70.3822 235.067 70.3008 234.936 70.2217 234.805C68.2743 231.566 66.5659 228.249 65.0947 224.858C60.7837 221.045 57.0457 217.099 53.8721 213.347C48.0458 206.458 43.7409 199.793 40.8809 194.845C39.4425 192.356 38.3466 190.261 37.5879 188.737C37.2081 187.975 36.9112 187.351 36.6963 186.89C36.5888 186.659 36.5014 186.468 36.4346 186.319C36.4012 186.245 36.3729 186.181 36.3496 186.129C36.338 186.103 36.3275 186.079 36.3184 186.059C36.3138 186.048 36.3096 186.038 36.3057 186.029C36.3037 186.025 36.3008 186.019 36.2998 186.017C36.2985 186.014 36.2972 186.011 38.3008 185.133L52.332 179L36.2949 186.005C33.2296 178.987 35.1277 171.024 40.5 166.1C28.915 156.902 21.5 142.672 21.5 126.749C21.5 114.161 26.1357 102.632 33.8008 93.8096C35.033 90.5855 36.585 87.5195 38.4229 84.6533C38.3968 83.9888 38.3828 83.3211 38.3828 82.6504C38.3828 70.0618 43.018 58.5314 50.6836 49.709C57.8711 30.9043 76.0251 17.5001 97.3828 17.5ZM103.502 324.931C101.848 324.972 100.242 325.325 98.8945 325.838C97.4547 326.387 96.8472 326.908 96.9355 326.828C96.8573 326.899 96.7787 326.969 96.6992 327.038C93.8809 329.487 91.9082 332.945 91.9082 339.581C91.9082 345.753 93.6348 349.008 95.8369 351.205C98.0428 353.406 101.324 355.141 107.539 355.141C115.596 355.141 121.037 352.675 125.342 348.253L125.347 348.248C129.079 344.418 131.445 339.883 132.264 334.006C125.491 336.591 117.825 334.734 112.987 329.333C109.734 325.701 106.45 324.857 103.502 324.931ZM157.759 162.204C153.279 162.204 150.397 163.566 147.783 166.465L147.555 166.727C145.213 169.464 143.523 173.377 143.523 179.852C143.523 183.469 144.161 186.959 145.539 190.411C147.74 189.638 149.609 188.819 151.175 188.026C154.773 186.204 157.039 184.393 158.243 183.284C158.546 183.005 158.785 182.768 158.962 182.584L159.312 182.201C160.261 180.914 161.368 179.779 162.596 178.816C162.699 178.617 162.803 178.413 162.903 178.203C164.353 175.179 165.02 172.191 165.021 169.063C165.021 165.341 164.046 164.215 163.533 163.703C163.118 163.288 161.925 162.204 157.759 162.204ZM159.192 182.366C159.165 182.403 159.135 182.446 159.102 182.493C159.085 182.517 159.066 182.542 159.048 182.568C159.039 182.582 159.029 182.595 159.02 182.609L159.005 182.631C159.086 182.514 159.17 182.4 159.253 182.285C159.235 182.309 159.215 182.336 159.192 182.366Z" stroke="white" stroke-width="35" stroke-linejoin="round"/>
</svg>
