<svg width="484" height="398" viewBox="0 0 484 398" fill="none" xmlns="http://www.w3.org/2000/svg">
<path d="M73.5857 362C58.9383 362 46.0347 359.448 34.8748 354.344C23.7148 349.24 15.1124 342.164 9.06744 333.116C3.02248 323.837 0 313.165 0 301.101C0 290.893 2.09249 281.613 6.27746 273.261C10.6949 264.909 16.5074 258.298 23.7148 253.426C31.1548 248.554 39.2922 246.118 48.1272 246.118C56.2646 246.118 68.0058 248.206 73.5857 252.382C79.1657 256.326 91.0231 269.5 91.0231 282.657C77 267 57.4271 272.333 50.2197 278.829C43.0122 285.093 39.4085 293.677 39.4085 304.581C39.4085 314.557 42.431 322.561 48.4759 328.592C54.5209 334.624 62.5421 337.64 72.5395 337.64C84.8619 337.64 94.9756 333.58 102.881 325.461C111.018 317.109 115.087 306.669 115.087 294.141C115.087 283.237 112.064 272.913 106.019 263.169C99.9743 253.426 90.9069 241.594 78.817 227.674C66.262 213.29 56.7296 200.994 50.2197 190.787C43.9422 180.347 40.8035 168.979 40.8035 156.683C40.8035 144.619 44.1747 133.831 50.9171 124.32C57.6596 114.576 66.9595 106.92 78.817 101.352C90.6744 95.784 104.043 93 118.923 93C137.755 93 152.751 97.4079 163.911 106.224C175.304 115.04 181 126.872 181 141.719C181 151.463 178.559 159.351 173.676 165.383C168.794 171.415 162.4 174.431 154.495 174.431C145.66 174.431 138.569 170.835 133.222 163.643C137.639 160.395 141.127 156.103 143.684 150.767C146.241 145.431 147.52 139.863 147.52 134.063C147.52 126.64 145.311 120.724 140.894 116.316C136.477 111.908 130.432 109.704 122.759 109.704C113.459 109.704 105.787 113.068 99.7418 119.796C93.9294 126.292 91.0231 134.643 91.0231 144.851C91.0231 154.131 93.6969 162.831 99.0443 170.951C104.392 178.839 112.762 189.047 124.154 201.574C133.454 211.55 140.894 220.134 146.474 227.326C152.286 234.518 157.169 242.87 161.121 252.382C165.306 261.661 167.399 271.753 167.399 282.657C167.399 297.505 163.214 310.961 154.844 323.025C146.706 335.088 135.43 344.6 121.015 351.56C106.833 358.52 91.0231 362 73.5857 362Z" fill="#FFBA47"/>
<path d="M69 91.7491C69 109.781 54.4493 124.399 36.5 124.399C18.5507 124.399 4 109.781 4 91.7491C4 73.7169 18.5507 59.0989 36.5 59.0989C54.4493 59.0989 69 73.7169 69 91.7491Z" fill="#D9D9D9"/>
<path d="M85.8831 47.6502C85.8831 65.6824 71.3324 80.3004 53.3831 80.3004C35.4339 80.3004 20.8831 65.6824 20.8831 47.6502C20.8831 29.618 35.4339 15 53.3831 15C71.3324 15 85.8831 29.618 85.8831 47.6502Z" fill="#D9D9D9"/>
<path d="M134 59.523C134 77.5552 119.449 92.1731 101.5 92.1731C83.5508 92.1731 69 77.5552 69 59.523C69 41.4908 83.5508 26.8728 101.5 26.8728C119.449 26.8728 134 41.4908 134 59.523Z" fill="#D9D9D9"/>
<path d="M44.5 145L33.9675 111.678L64.3571 62.9152H117.117L128 96L44.5 145Z" fill="#D9D9D9"/>
<path d="M78 76.7491C78 94.7813 63.4493 109.399 45.5 109.399C27.5507 109.399 13 94.7813 13 76.7491C13 58.7169 27.5507 44.0989 45.5 44.0989C63.4493 44.0989 78 58.7169 78 76.7491Z" fill="white"/>
<path d="M94.8831 32.6502C94.8831 50.6824 80.3324 65.3004 62.3831 65.3004C44.4339 65.3004 29.8831 50.6824 29.8831 32.6502C29.8831 14.618 44.4339 0 62.3831 0C80.3324 0 94.8831 14.618 94.8831 32.6502Z" fill="white"/>
<path d="M143 44.523C143 62.5552 128.449 77.1731 110.5 77.1731C92.5508 77.1731 78 62.5552 78 44.523C78 26.4908 92.5508 11.8728 110.5 11.8728C128.449 11.8728 143 26.4908 143 44.523Z" fill="white"/>
<path d="M53.5 130L42.9675 96.6784L73.3571 47.9152H126.117L137 81L53.5 130Z" fill="white"/>
<path d="M176.854 161.434L138.397 157.586C138.397 157.586 122.294 180.941 72.1919 175.928C34.3837 177.27 17.3316 144 17.3316 144C17.3316 144 36.9331 188.877 77.7472 193.734C155.488 202.985 176.854 161.434 176.854 161.434Z" fill="#FFBA47"/>
<path d="M113.474 17C126.535 17 137.123 27.5882 137.123 40.6494C137.123 47.5055 134.204 53.6785 129.543 57.998C130.938 54.9822 131.718 51.6232 131.718 48.082C131.718 35.021 121.129 24.4328 108.068 24.4326C101.864 24.4326 96.2184 26.8223 92 30.7305C95.7507 22.6243 103.955 17 113.474 17Z" fill="#EEEEEE"/>
<path d="M45.4736 48C58.5349 48 69.1229 58.5882 69.123 71.6494C69.123 78.5055 66.2041 84.6785 61.543 88.998C62.9378 85.9822 63.7178 82.6232 63.7178 79.082C63.7176 66.021 53.1294 55.4328 40.0684 55.4326C33.8643 55.4326 28.2184 57.8223 24 61.7305C27.7507 53.6243 35.9548 48 45.4736 48Z" fill="#EEEEEE"/>
<path d="M59.3383 4.65054C72.3173 3.1867 84.0253 12.5215 85.4893 25.5004C86.2577 32.3133 84.049 38.7746 79.9013 43.5893C80.9494 40.4361 81.348 37.0108 80.9511 33.492C79.4871 20.5133 67.7789 11.1785 54.8001 12.6421C48.6352 13.3375 43.2927 16.3449 39.5389 20.7012C42.3574 12.2257 49.8795 5.71738 59.3383 4.65054Z" fill="#EEEEEE"/>
<path d="M293.423 300C285.843 300 280.046 298.161 276.033 294.484C272.02 290.696 270.014 285.403 270.014 278.606C270.014 275.263 270.404 272.088 271.184 269.079L290.281 189.843L315.027 186.5L305.796 219.606C308.917 217.712 311.481 216.486 313.487 215.929C315.494 215.261 317.5 214.926 319.506 214.926C332.66 214.926 339.237 224.453 339.237 243.507C339.237 251.195 337.732 259.441 334.722 268.244C331.824 276.935 326.919 284.4 320.008 290.64C313.208 296.88 304.347 300 293.423 300ZM302.786 283.788C306.242 283.788 309.474 281.67 312.484 277.436C315.494 273.091 317.89 267.742 319.674 261.391C321.457 254.928 322.349 248.744 322.349 242.839C322.349 238.381 321.569 234.593 320.008 231.473C318.447 228.353 316.274 226.793 313.487 226.793C311.815 226.793 309.92 227.072 307.802 227.629C305.796 228.075 304.402 228.799 303.622 229.802L294.426 272.255C294.091 273.592 293.924 274.873 293.924 276.099C293.924 281.225 296.878 283.788 302.786 283.788Z" fill="#FF6C00"/>
<path d="M369.891 299.666C361.642 299.666 355.121 297.549 350.328 293.314C345.535 289.08 343.138 282.395 343.138 273.258C343.138 265.681 344.699 257.268 347.82 248.02C350.941 238.771 355.957 230.805 362.868 224.119C369.78 217.322 378.474 213.924 388.952 213.924C403.22 213.924 410.354 222.838 410.354 240.666V240.833C410.689 240.944 411.302 241 412.194 241C415.872 241 420.108 240.053 424.901 238.159C429.694 236.153 434.042 233.757 437.943 230.972L439.448 235.484C436.215 238.939 431.98 241.891 426.74 244.343C421.613 246.683 415.984 248.354 409.853 249.357C408.961 259.497 406.676 268.355 402.997 275.932C399.319 283.509 394.582 289.359 388.785 293.482C382.989 297.604 376.691 299.666 369.891 299.666ZM376.579 284.623C379.254 284.623 381.93 283.119 384.605 280.11C387.28 276.991 389.621 272.812 391.628 267.575C393.634 262.227 395.083 256.321 395.975 249.858C392.965 249.19 391.46 246.85 391.46 242.839C391.46 238.27 393.188 235.262 396.644 233.813C396.421 230.136 395.863 227.629 394.972 226.292C394.08 224.843 392.519 224.119 390.29 224.119C386.611 224.119 383.044 226.793 379.589 232.142C376.133 237.49 373.347 243.897 371.229 251.363C369.111 258.828 368.052 265.402 368.052 271.085C368.052 276.433 368.665 280.055 369.891 281.949C371.117 283.732 373.347 284.623 376.579 284.623Z" fill="#FF6C00"/>
<path d="M430.327 215.428H454.405L452.231 225.79C456.021 222.448 459.421 219.885 462.431 218.102C465.552 216.319 468.896 215.428 472.463 215.428C476.03 215.428 478.817 216.653 480.823 219.105C482.941 221.556 484 224.509 484 227.963C484 231.195 482.941 234.036 480.823 236.487C478.705 238.939 475.751 240.164 471.961 240.164C469.509 240.164 467.837 239.607 466.945 238.493C466.165 237.267 465.552 235.54 465.106 233.312C464.772 231.863 464.437 230.805 464.103 230.136C463.768 229.467 463.155 229.133 462.263 229.133C459.923 229.133 457.916 229.635 456.244 230.637C454.684 231.529 452.621 233.144 450.058 235.484L436.681 298.997H412.604L430.327 215.428Z" fill="#FF6C00"/>
<path d="M447.805 327.082C447.935 327.591 448 328.079 448 328.545C448 330.03 447.415 331.43 446.245 332.745C445.118 334.061 443.687 334.994 441.954 335.545C441.217 335.758 440.35 335.864 439.353 335.864C438.963 339.47 437.858 342.652 436.037 345.409C434.26 348.124 431.92 350.245 429.015 351.773C426.111 353.258 422.861 354 419.263 354C415.146 354 411.895 352.982 409.511 350.945C407.17 348.909 406 346.152 406 342.673C406 340.339 406.52 338.048 407.56 335.8C408.644 333.509 410.096 331.536 411.916 329.882C413.78 328.227 415.817 327.082 418.028 326.445V326.191C416.684 325.088 415.731 323.921 415.167 322.691C414.604 321.461 414.322 319.933 414.322 318.109C414.322 315.818 414.95 313.676 416.207 311.682C417.508 309.645 419.241 308.033 421.409 306.845C423.619 305.615 426.003 305 428.56 305C431.508 305 433.935 305.827 435.842 307.482C437.749 309.136 438.703 311.236 438.703 313.782C438.703 315.521 438.248 316.942 437.337 318.045C436.427 319.148 435.235 319.7 433.762 319.7C432.115 319.7 430.793 319.042 429.796 317.727C430.576 317.261 431.204 316.539 431.681 315.564C432.201 314.588 432.461 313.548 432.461 312.445C432.461 311.258 432.158 310.324 431.551 309.645C430.944 308.967 430.121 308.627 429.08 308.627C427.954 308.627 426.87 309.052 425.83 309.9C424.789 310.748 423.944 311.894 423.294 313.336C422.687 314.736 422.384 316.221 422.384 317.791C422.384 319.912 422.969 321.715 424.139 323.2C425.31 324.642 426.913 325.618 428.95 326.127V326.382C426.913 326.764 424.985 327.697 423.164 329.182C421.387 330.624 419.957 332.406 418.873 334.527C417.833 336.606 417.313 338.727 417.313 340.891C417.313 343.097 417.876 344.815 419.003 346.045C420.13 347.276 421.69 347.891 423.684 347.891C425.548 347.891 427.39 347.382 429.211 346.364C431.031 345.345 432.591 343.924 433.892 342.1C435.192 340.276 436.059 338.218 436.492 335.927C435.539 335.927 434.542 336.055 433.502 336.309C431.118 337.073 429.406 338.197 428.365 339.682L428.17 339.745C427.693 339.152 427.303 338.388 427 337.455C426.827 336.945 426.74 336.394 426.74 335.8C426.74 334.358 427.26 333.064 428.3 331.918C429.341 330.773 430.641 329.967 432.201 329.5C433.415 329.161 435.084 328.906 437.207 328.736C438.638 328.652 439.873 328.503 440.913 328.291C441.91 327.994 442.907 327.506 443.904 326.827C444.944 326.106 445.724 325.406 446.245 324.727H446.375C447.025 325.364 447.502 326.148 447.805 327.082Z" fill="#FFBA47"/>
<path d="M187.59 398C181.993 398 177.328 396.081 173.597 392.244C169.866 388.407 168 382.405 168 374.238C168 366.957 169.424 359.331 172.271 351.361C175.217 343.293 179.538 336.504 185.233 330.994C191.027 325.386 197.9 322.581 205.854 322.581C209.88 322.581 212.875 323.27 214.839 324.648C216.803 326.025 217.785 327.845 217.785 330.108V331.142L219.405 323.319H240.615L230.01 373.5C229.617 374.976 229.421 376.55 229.421 378.223C229.421 382.454 231.434 384.569 235.46 384.569C238.209 384.569 240.566 383.29 242.53 380.732C244.592 378.174 246.212 374.828 247.39 370.696H253.577C249.943 381.322 245.427 388.554 240.026 392.392C234.723 396.131 229.372 398 223.971 398C219.847 398 216.508 396.868 213.955 394.605C211.5 392.244 210.027 388.849 209.536 384.422C206.689 388.456 203.497 391.752 199.962 394.31C196.526 396.77 192.401 398 187.59 398ZM197.164 383.684C199.619 383.684 202.024 382.552 204.381 380.289C206.836 377.928 208.505 374.73 209.389 370.696L216.459 337.34C216.459 336.061 215.968 334.831 214.986 333.651C214.004 332.371 212.482 331.732 210.42 331.732C206.492 331.732 202.957 334.044 199.815 338.669C196.673 343.195 194.218 348.705 192.45 355.199C190.683 361.594 189.799 367.252 189.799 372.172C189.799 377.091 190.487 380.24 191.861 381.617C193.334 382.995 195.102 383.684 197.164 383.684Z" fill="#FF6C00"/>
<path d="M257.46 323.319H278.67L276.756 332.47C280.094 329.518 283.089 327.255 285.74 325.681C288.49 324.106 291.436 323.319 294.578 323.319C297.72 323.319 300.175 324.402 301.943 326.566C303.808 328.731 304.741 331.338 304.741 334.389C304.741 337.242 303.808 339.751 301.943 341.916C300.077 344.08 297.475 345.163 294.136 345.163C291.976 345.163 290.503 344.671 289.717 343.687C289.03 342.604 288.49 341.079 288.097 339.111C287.802 337.832 287.508 336.898 287.213 336.307C286.919 335.717 286.379 335.422 285.593 335.422C283.531 335.422 281.764 335.864 280.291 336.75C278.916 337.537 277.099 338.964 274.841 341.03L263.057 397.114H241.847L257.46 323.319Z" fill="#FF6C00"/>
<path d="M317.405 398C312.691 398 308.862 396.524 305.916 393.572C303.068 390.62 301.645 386.193 301.645 380.289C301.645 377.829 302.037 374.632 302.823 370.696L311.66 329.223H306.8L307.978 323.319H312.839L317.257 302.952L339.057 300L334.049 323.319H342.886L341.708 329.223H332.87L323.444 373.5C323.051 374.976 322.855 376.55 322.855 378.223C322.855 380.191 323.296 381.617 324.18 382.503C325.162 383.29 326.733 383.684 328.894 383.684C331.741 383.684 334.392 382.503 336.847 380.142C339.302 377.682 341.07 374.533 342.15 370.696H348.336C344.703 381.322 340.039 388.554 334.343 392.392C328.648 396.131 323.002 398 317.405 398Z" fill="#FF6C00"/>
<path d="M362.859 398C355.691 398 350.094 396.131 346.068 392.392C342.042 388.554 340.029 382.601 340.029 374.533C340.029 367.744 341.355 360.266 344.006 352.099C346.657 343.933 350.978 336.898 356.968 330.994C362.957 324.992 370.568 321.991 379.798 321.991C390.599 321.991 396 326.714 396 336.16C396 341.67 394.429 346.737 391.287 351.361C388.144 355.986 383.971 359.725 378.767 362.578C373.563 365.333 368.015 366.908 362.123 367.301C361.926 369.466 361.828 370.942 361.828 371.729C361.828 379.896 364.872 383.979 370.96 383.979C373.71 383.979 376.656 383.241 379.798 381.765C382.94 380.289 385.788 378.42 388.341 376.157C385.69 390.719 377.196 398 362.859 398ZM363.154 360.217C366.885 360.118 370.371 358.889 373.612 356.527C376.95 354.166 379.601 351.165 381.565 347.524C383.627 343.785 384.659 339.899 384.659 335.864C384.659 331.83 383.431 329.813 380.976 329.813C377.539 329.813 374.103 332.962 370.666 339.259C367.327 345.458 364.823 352.444 363.154 360.217Z" fill="#FF6C00"/>
<path d="M254.873 292.604C247.387 302.326 207.461 302.604 191.935 292.604C176.408 282.605 185.835 267.05 185.835 267.05C189.994 244.274 202.748 218.165 214.393 201.222C226.038 184.278 257.369 238.719 261.25 258.718C265.132 278.716 262.359 282.883 254.873 292.604Z" fill="#FFA42F"/>
<path d="M200.53 281.771C211.227 282.882 217.932 284.827 230.197 288.715C242.462 292.604 242.462 298.476 242.462 298.476C227.213 301.696 203.177 299.845 191.935 292.604C183.371 287.089 182.399 279.885 183.249 274.532C183.249 274.532 189.833 280.661 200.53 281.771Z" fill="#F18A0A"/>
<path d="M214.393 201.222C217.494 196.709 221.992 197.26 226.995 200.875C226.995 200.875 229.088 220.387 214.393 233.164C199.698 245.941 189.833 251.328 189.833 251.328C195.673 232.999 205.366 214.356 214.393 201.222Z" fill="#F18A0A"/>
</svg>
