<svg width="554" height="468" viewBox="0 0 554 468" fill="none" xmlns="http://www.w3.org/2000/svg">
<path d="M108.586 397C93.9383 397 81.0347 394.448 69.8748 389.344C58.7148 384.24 50.1124 377.164 44.0674 368.116C38.0225 358.837 35 348.165 35 336.101C35 325.893 37.0925 316.613 41.2775 308.261C45.6949 299.909 51.5074 293.298 58.7148 288.426C66.1548 283.554 74.2922 281.118 83.1272 281.118C91.2646 281.118 103.006 283.206 108.586 287.382C114.166 291.326 126.023 304.5 126.023 317.657C112 302 92.4271 307.333 85.2197 313.829C78.0122 320.093 74.4085 328.677 74.4085 339.581C74.4085 349.557 77.431 357.561 83.4759 363.592C89.5209 369.624 97.5421 372.64 107.539 372.64C119.862 372.64 129.976 368.58 137.881 360.461C146.018 352.109 150.087 341.669 150.087 329.141C150.087 318.237 147.064 307.913 141.019 298.169C134.974 288.426 125.907 276.594 113.817 262.674C101.262 248.29 91.7296 235.994 85.2197 225.787C78.9422 215.347 75.8035 203.979 75.8035 191.683C75.8035 179.619 79.1747 168.831 85.9171 159.32C92.6596 149.576 101.96 141.92 113.817 136.352C125.674 130.784 139.043 128 153.923 128C172.755 128 187.751 132.408 198.911 141.224C210.304 150.04 216 161.872 216 176.719C216 186.463 213.559 194.351 208.676 200.383C203.794 206.415 197.4 209.431 189.495 209.431C180.66 209.431 173.569 205.835 168.222 198.643C172.639 195.395 176.127 191.103 178.684 185.767C181.241 180.431 182.52 174.863 182.52 169.063C182.52 161.64 180.311 155.724 175.894 151.316C171.477 146.908 165.432 144.704 157.759 144.704C148.459 144.704 140.787 148.068 134.742 154.796C128.929 161.292 126.023 169.643 126.023 179.851C126.023 189.131 128.697 197.831 134.044 205.951C139.392 213.839 147.762 224.047 159.154 236.574C168.454 246.55 175.894 255.134 181.474 262.326C187.286 269.518 192.169 277.87 196.121 287.382C200.306 296.661 202.399 306.753 202.399 317.657C202.399 332.505 198.214 345.961 189.844 358.025C181.706 370.088 170.43 379.6 156.015 386.56C141.833 393.52 126.023 397 108.586 397Z" fill="#FFBA47"/>
<path d="M40.8037 191.683C40.8038 172.767 46.2004 154.97 57.1357 139.403C67.7556 124.056 82.0967 112.58 98.9404 104.671C116.047 96.6379 134.601 93 153.923 93C177.956 93 201.297 98.6319 220.33 113.545L220.331 113.544C220.356 113.563 220.38 113.583 220.404 113.602C220.472 113.654 220.54 113.707 220.607 113.76L220.606 113.761C240.686 129.427 251 151.545 251 176.72C251 192.383 246.984 208.686 235.881 222.403C228.649 231.338 219.57 237.656 209.371 241.171C217.105 250.914 223.35 261.795 228.273 273.55C234.47 287.507 237.398 302.354 237.398 317.657C237.398 339.435 231.149 359.765 218.797 377.688C206.905 395.281 190.728 408.625 171.434 417.979L171.435 417.98C151.973 427.531 130.807 432 108.586 432C89.8735 432 71.8447 428.731 55.3184 421.173C39.0291 413.723 25.0611 402.671 14.9648 387.56C14.8895 387.447 14.8152 387.333 14.7412 387.22C4.66398 371.75 0 354.317 0 336.101C4.22316e-05 320.963 3.14257 306.24 9.98633 292.582L10.3389 291.897C17.2053 278.916 26.7457 267.789 39.1143 259.429L39.541 259.145C45.7222 255.097 52.2812 251.969 59.1338 249.794C57.9372 248.036 56.7947 246.307 55.71 244.606C55.5448 244.347 55.3829 244.086 55.2246 243.822C45.6403 227.883 40.8037 210.271 40.8037 191.683ZM75.8125 192.833C76.0025 204.688 79.1385 215.673 85.2197 225.787C91.7296 235.994 101.262 248.29 113.817 262.674C125.907 276.594 134.974 288.426 141.019 298.169C147.064 307.913 150.087 318.237 150.087 329.141C150.087 341.669 146.018 352.109 137.881 360.461C129.976 368.58 119.862 372.64 107.539 372.64C97.5421 372.64 89.5209 369.624 83.4759 363.592C77.62 357.749 74.6001 350.055 74.417 340.511L74.4085 339.581C74.4085 328.677 78.0122 320.093 85.2197 313.829C92.4271 307.333 112 302 126.023 317.657C126.023 304.5 114.166 291.326 108.586 287.382C103.006 283.206 91.2646 281.118 83.1272 281.118C74.2922 281.118 66.1548 283.554 58.7148 288.426C51.5074 293.298 45.6949 299.909 41.2775 308.261L40.8916 309.047C36.9641 317.194 35 326.212 35 336.101C35 348.165 38.0225 358.837 44.0674 368.116C50.1124 377.164 58.7148 384.24 69.8748 389.344C81.0347 394.448 93.9383 397 108.586 397C126.023 397 141.833 393.52 156.015 386.56C170.43 379.6 181.706 370.088 189.844 358.025C197.952 346.338 202.133 333.344 202.387 319.045L202.399 317.657C202.399 306.753 200.306 296.661 196.121 287.382C192.292 278.167 187.591 270.041 182.017 263.004L181.474 262.326C176.243 255.584 169.377 247.618 160.876 238.429L159.154 236.574C147.762 224.047 139.392 213.839 134.044 205.951C128.864 198.085 126.193 189.674 126.031 180.72L126.023 179.851C126.023 169.643 128.929 161.292 134.742 154.796C140.787 148.068 148.459 144.704 157.759 144.704C165.432 144.704 171.477 146.908 175.894 151.316C180.311 155.724 182.52 161.64 182.52 169.063C182.52 174.863 181.241 180.431 178.684 185.767L178.441 186.265C175.908 191.37 172.501 195.497 168.222 198.643C173.569 205.835 180.66 209.431 189.495 209.431C197.4 209.431 203.794 206.415 208.676 200.383C213.559 194.351 216 186.463 216 176.719C216 161.872 210.304 150.04 198.911 141.224C187.751 132.408 172.755 128 153.923 128C139.043 128 125.674 130.784 113.817 136.352C101.96 141.92 92.6596 149.576 85.9171 159.32C79.1747 168.831 75.8035 179.619 75.8035 191.683L75.8125 192.833Z" fill="white"/>
<path d="M104 126.749C104 144.781 89.4493 159.399 71.5 159.399C53.5507 159.399 39 144.781 39 126.749C39 108.717 53.5507 94.0989 71.5 94.0989C89.4493 94.0989 104 108.717 104 126.749Z" fill="#D9D9D9"/>
<path d="M120.883 82.6502C120.883 100.682 106.332 115.3 88.3831 115.3C70.4339 115.3 55.8831 100.682 55.8831 82.6502C55.8831 64.618 70.4339 50 88.3831 50C106.332 50 120.883 64.618 120.883 82.6502Z" fill="#D9D9D9"/>
<path d="M169 94.523C169 112.555 154.449 127.173 136.5 127.173C118.551 127.173 104 112.555 104 94.523C104 76.4908 118.551 61.8728 136.5 61.8728C154.449 61.8728 169 76.4908 169 94.523Z" fill="#D9D9D9"/>
<path d="M79.5 180L68.9675 146.678L99.3571 97.9152H152.117L163 131L79.5 180Z" fill="#D9D9D9"/>
<path d="M88.3828 15C102.974 15 116.446 19.6265 127.455 27.4756C130.412 27.0794 133.431 26.873 136.5 26.873C173.931 26.873 204 57.3136 204 94.5234C204 105.058 201.589 115.049 197.284 123.961C200.275 138.484 193.756 153.533 180.714 161.187L97.2139 210.187C88.0268 215.578 76.8842 216.492 66.9414 212.67C56.9988 208.848 49.3384 200.705 46.1279 190.549L45.7324 189.3C21.1797 179.132 4 154.875 4 126.749C4.00002 109.627 10.3667 93.9383 20.8877 81.9893C21.2412 45.0807 51.1736 15.0002 88.3828 15ZM88.3831 50C70.4339 50 55.8831 64.618 55.8831 82.6502C55.8831 87.6428 57 92.3732 58.9941 96.6045C47.2527 101.526 39 113.169 39 126.749C39 144.781 53.5507 159.399 71.5 159.399C71.9949 159.399 72.4871 159.385 72.9766 159.363L79.5 180L163 131L158.81 118.262C165.083 112.309 169 103.876 169 94.523C169 76.4908 154.449 61.8728 136.5 61.8728C129.39 61.8728 122.813 64.1681 117.463 68.0596C112.13 57.3524 101.112 50 88.3831 50Z" fill="white"/>
<path d="M113 111.749C113 129.781 98.4493 144.399 80.5 144.399C62.5507 144.399 48 129.781 48 111.749C48 93.7169 62.5507 79.0989 80.5 79.0989C98.4493 79.0989 113 93.7169 113 111.749Z" fill="white"/>
<path d="M129.883 67.6502C129.883 85.6824 115.332 100.3 97.3831 100.3C79.4339 100.3 64.8831 85.6824 64.8831 67.6502C64.8831 49.618 79.4339 35 97.3831 35C115.332 35 129.883 49.618 129.883 67.6502Z" fill="white"/>
<path d="M178 79.523C178 97.5552 163.449 112.173 145.5 112.173C127.551 112.173 113 97.5552 113 79.523C113 61.4908 127.551 46.8728 145.5 46.8728C163.449 46.8728 178 61.4908 178 79.523Z" fill="white"/>
<path d="M88.5 165L77.9675 131.678L108.357 82.9152H161.117L172 116L88.5 165Z" fill="white"/>
<path d="M97.3828 0C111.974 0 125.446 4.62649 136.455 12.4756C139.412 12.0794 142.431 11.873 145.5 11.873C182.931 11.873 213 42.3136 213 79.5234C213 90.0577 210.589 100.049 206.284 108.961C209.275 123.484 202.756 138.533 189.714 146.187L106.214 195.187C97.0268 200.578 85.8842 201.492 75.9414 197.67C65.9988 193.848 58.3384 185.705 55.1279 175.549L54.7324 174.3C30.1797 164.132 13 139.875 13 111.749C13 94.627 19.3667 78.9383 29.8877 66.9893C30.2412 30.0807 60.1736 0.000164473 97.3828 0ZM97.3831 35C79.4339 35 64.8831 49.618 64.8831 67.6502C64.8831 72.6428 66 77.3732 67.9941 81.6045C56.2527 86.5264 48 98.1693 48 111.749C48 129.781 62.5507 144.399 80.5 144.399C80.9949 144.399 81.4871 144.385 81.9766 144.363L88.5 165L172 116L167.81 103.262C174.083 97.3092 178 88.8762 178 79.523C178 61.4908 163.449 46.8728 145.5 46.8728C138.39 46.8728 131.813 49.1681 126.463 53.0596C121.13 42.3524 110.112 35 97.3831 35Z" fill="white"/>
<path d="M211.854 196.434L173.397 192.586C173.397 192.586 157.294 215.941 107.192 210.928C69.3837 212.27 52.3316 179 52.3316 179C52.3316 179 71.9331 223.877 112.747 228.734C190.488 237.985 211.854 196.434 211.854 196.434Z" fill="#FFBA47"/>
<path d="M37.3373 147.374C54.414 139.278 74.8314 146.202 83.464 163.009L83.4651 163.008C83.4628 163.004 83.4557 162.99 83.4511 162.982C83.442 162.964 83.4326 162.947 83.4239 162.93C83.4066 162.896 83.3901 162.864 83.3745 162.835C83.3434 162.775 83.3157 162.722 83.2913 162.676C83.2425 162.584 83.2074 162.519 83.1854 162.479C83.1417 162.4 83.1497 162.418 83.2106 162.521C83.3356 162.731 83.6565 163.251 84.1699 163.978C85.2328 165.482 86.8958 167.546 89.092 169.538C93.3179 173.369 98.535 176.213 105.95 175.95L106.542 175.935C107.922 175.909 109.303 175.965 110.677 176.102C129.713 178.007 139.478 174.334 143.266 172.415C144.835 171.621 145.761 170.932 146.163 170.604C153.54 161.46 165.075 156.579 176.882 157.76L215.339 161.608C226.862 162.761 237.07 169.539 242.602 179.713C248.135 189.887 248.276 202.14 242.98 212.439L211.854 196.434L229.846 205.691C242.974 212.451 242.965 212.469 242.955 212.487C242.951 212.496 242.938 212.52 242.93 212.537C242.913 212.57 242.895 212.604 242.877 212.639C242.84 212.708 242.803 212.78 242.764 212.854C242.685 213.003 242.599 213.163 242.506 213.334C242.32 213.674 242.104 214.057 241.859 214.478C241.37 215.32 240.761 216.319 240.018 217.446C238.535 219.699 236.514 222.483 233.866 225.57C228.554 231.762 220.729 239.16 209.746 245.893C187.246 259.686 154.403 268.938 108.612 263.489C75.8523 259.59 53.4001 239.888 40.5105 224.648C33.8587 216.783 28.9733 209.216 25.7286 203.602C24.0896 200.766 22.8246 198.348 21.9228 196.537C21.4709 195.629 21.1067 194.868 20.8302 194.274C20.6919 193.976 20.5751 193.721 20.4798 193.509C20.4322 193.404 20.39 193.309 20.3531 193.226C20.3346 193.184 20.3169 193.145 20.301 193.109C20.2932 193.091 20.2858 193.074 20.2787 193.057C20.275 193.049 20.2692 193.037 20.2674 193.033C20.2626 193.021 20.3485 192.97 52.3316 179L20.258 193.009C12.6895 175.681 20.2518 155.475 37.3373 147.374ZM52.3316 179C52.3316 179 71.9331 223.877 112.747 228.734C190.359 237.969 211.783 196.571 211.854 196.434L173.397 192.586C173.348 192.658 157.217 215.933 107.192 210.928C69.3837 212.27 52.3316 179 52.3316 179ZM144.817 172.384C144.779 172.437 144.74 172.491 144.702 172.547C144.682 172.575 144.663 172.603 144.643 172.631C144.633 172.646 144.618 172.667 144.613 172.675C144.698 172.552 144.783 172.431 144.87 172.31C144.852 172.334 144.835 172.359 144.817 172.384ZM145.035 172.079C145.024 172.095 145.012 172.111 145.001 172.126C145.021 172.099 145.041 172.071 145.061 172.043C145.052 172.055 145.044 172.067 145.035 172.079Z" fill="white"/>
<path d="M148.474 52C161.535 52 172.123 62.5882 172.123 75.6494C172.123 82.5055 169.204 88.6785 164.543 92.998C165.938 89.9822 166.718 86.6232 166.718 83.082C166.718 70.021 156.129 59.4328 143.068 59.4326C136.864 59.4326 131.218 61.8223 127 65.7305C130.751 57.6243 138.955 52 148.474 52Z" fill="#EEEEEE"/>
<path d="M149.231 17.0049C181.274 17.4106 207.123 43.5117 207.123 75.6494C207.123 92.6592 199.836 108.01 188.333 118.67C176.074 130.031 157.493 131.137 143.971 121.313C136.843 116.135 132.17 108.68 130.372 100.565C122.095 101.366 113.555 99.2259 106.424 94.043C92.9033 84.2168 88.2168 66.2022 95.2354 51.0332C104.499 31.0129 124.81 17 148.474 17L149.231 17.0049ZM148.474 52C138.955 52 130.751 57.6243 127 65.7305C131.218 61.8223 136.864 59.4326 143.068 59.4326C156.129 59.4328 166.718 70.021 166.718 83.082C166.718 86.6232 165.938 89.9822 164.543 92.998C169.204 88.6785 172.123 82.5055 172.123 75.6494C172.123 62.5882 161.535 52 148.474 52ZM143.068 83.082V85.6318C144.515 86.4166 146.15 86.8972 147.89 86.9854L148.474 87C151.477 87 154.175 85.8334 156.181 83.9736L155.354 83.082H143.068ZM139.899 83.082C140.791 84.1099 141.863 84.9778 143.068 85.6318V83.082H139.899ZM148.474 83.082H155.354L148.487 75.6719L148.474 75.666V83.082ZM138.172 70.8994C137.506 72.3436 137.123 73.9576 137.123 75.6494C137.123 78.4929 138.171 81.0904 139.899 83.082H143.068L143.067 83.0654L143.068 83.0742L143.075 83.082H148.474V75.666L143.068 73.165V75.6494L143.067 73.1641L138.172 70.8994ZM143.068 83.082H143.075L143.068 83.0742V83.082Z" fill="white"/>
<path d="M80.4736 83C93.5349 83 104.123 93.5882 104.123 106.649C104.123 113.505 101.204 119.679 96.543 123.998C97.9378 120.982 98.7178 117.623 98.7178 114.082C98.7176 101.021 88.1294 90.4328 75.0684 90.4326C68.8643 90.4326 63.2184 92.8223 59 96.7305C62.7507 88.6243 70.9548 83 80.4736 83Z" fill="#EEEEEE"/>
<path d="M81.2314 48.0049C113.274 48.4106 139.123 74.5117 139.123 106.649C139.123 123.659 131.836 139.01 120.333 149.67C108.074 161.031 89.4926 162.137 75.9707 152.313C68.8425 147.135 64.1702 139.68 62.3721 131.565C54.0946 132.366 45.5554 130.226 38.4238 125.043C24.9033 115.217 20.2168 97.2022 27.2354 82.0332C36.4987 62.0129 56.8104 48 80.4736 48L81.2314 48.0049ZM80.4736 83C70.9548 83 62.7507 88.6243 59 96.7305C63.2184 92.8223 68.8643 90.4326 75.0684 90.4326C88.1294 90.4328 98.7176 101.021 98.7178 114.082C98.7178 117.623 97.9378 120.982 96.543 123.998C101.204 119.679 104.123 113.505 104.123 106.649C104.123 93.5882 93.5349 83 80.4736 83ZM75.0684 114.082V116.632C76.5147 117.417 78.1503 117.897 79.8896 117.985L80.4736 118C83.477 118 86.1747 116.833 88.1807 114.974L87.3535 114.082H75.0684ZM71.8994 114.082C72.7912 115.11 73.8632 115.978 75.0684 116.632V114.082H71.8994ZM80.4736 114.082H87.3535L80.4873 106.672L80.4736 106.666V114.082ZM70.1719 101.899C69.5059 103.344 69.123 104.958 69.123 106.649C69.1231 109.493 70.1715 112.09 71.8994 114.082H75.0684L75.0674 114.065L75.0684 114.074L75.0752 114.082H80.4736V106.666L75.0684 104.165V106.649L75.0674 104.164L70.1719 101.899ZM75.0684 114.082H75.0752L75.0684 114.074V114.082Z" fill="white"/>
<path d="M94.3383 39.6505C107.317 38.1867 119.025 47.5215 120.489 60.5004C121.258 67.3133 119.049 73.7746 114.901 78.5893C115.949 75.4361 116.348 72.0108 115.951 68.492C114.487 55.5133 102.779 46.1785 89.8001 47.6421C83.6352 48.3375 78.2927 51.3449 74.5389 55.7012C77.3574 47.2257 84.8795 40.7174 94.3383 39.6505Z" fill="#EEEEEE"/>
<path d="M91.1693 4.79097C123.055 1.60301 151.667 24.6426 155.269 56.5777C157.175 73.4803 151.654 89.5513 141.419 101.433C130.51 114.096 112.17 117.279 97.6322 109.032C89.9685 104.685 84.49 97.8004 81.7939 89.9387C73.6583 91.6616 64.933 90.4924 57.2655 86.1414C42.7289 77.8925 36.0529 60.5166 41.3271 44.6566C48.2883 23.7242 66.9015 7.52315 90.4157 4.87105L91.1693 4.79097ZM94.3383 39.6505C84.8795 40.7174 77.3574 47.2257 74.5389 55.7012C78.2927 51.3449 83.6352 48.3375 89.8001 47.6421C102.779 46.1785 114.487 55.5133 115.951 68.492C116.348 72.0108 115.949 75.4361 114.901 78.5893C119.049 73.7746 121.258 67.3133 120.489 60.5004C119.025 47.5215 107.317 38.1867 94.3383 39.6505ZM92.4507 71.1425L92.7365 73.6763C94.2616 74.2941 95.9408 74.5883 97.6791 74.4809L98.261 74.43C101.245 74.0934 103.795 72.6318 105.58 70.559L104.658 69.7657L92.4507 71.1425ZM89.3017 71.4977C90.303 72.4191 91.4656 73.1614 92.7365 73.6763L92.4507 71.1425L89.3017 71.4977ZM97.8219 70.5367L104.658 69.7657L97.005 63.1717L96.9907 63.1674L97.8219 70.5367ZM86.2197 59.5855C85.7198 61.0952 85.5202 62.742 85.7098 64.4231C86.0285 67.2487 87.3614 69.7123 89.3017 71.4977L92.4507 71.1425L92.4479 71.1262L92.4498 71.1348L92.4575 71.1418L97.8219 70.5367L96.9907 63.1674L91.3392 61.288L91.6177 63.7568L91.3381 61.2872L86.2197 59.5855ZM92.4507 71.1425L92.4575 71.1418L92.4498 71.1348L92.4507 71.1425Z" fill="white"/>
<path d="M328.423 335C320.843 335 315.046 333.161 311.033 329.484C307.02 325.696 305.014 320.403 305.014 313.606C305.014 310.263 305.404 307.088 306.184 304.079L325.281 224.843L350.027 221.5L340.796 254.606C343.917 252.712 346.481 251.486 348.487 250.929C350.494 250.261 352.5 249.926 354.506 249.926C367.66 249.926 374.237 259.453 374.237 278.507C374.237 286.195 372.732 294.441 369.722 303.244C366.824 311.935 361.919 319.4 355.008 325.64C348.208 331.88 339.347 335 328.423 335ZM337.786 318.788C341.242 318.788 344.474 316.67 347.484 312.436C350.494 308.091 352.89 302.742 354.674 296.391C356.457 289.928 357.349 283.744 357.349 277.839C357.349 273.381 356.569 269.593 355.008 266.473C353.447 263.353 351.274 261.793 348.487 261.793C346.815 261.793 344.92 262.072 342.802 262.629C340.796 263.075 339.402 263.799 338.622 264.802L329.426 307.255C329.091 308.592 328.924 309.873 328.924 311.099C328.924 316.225 331.878 318.788 337.786 318.788Z" fill="#FF6C00"/>
<path d="M404.891 334.666C396.642 334.666 390.121 332.549 385.328 328.314C380.535 324.08 378.138 317.395 378.138 308.258C378.138 300.681 379.699 292.268 382.82 283.02C385.941 273.771 390.957 265.805 397.868 259.119C404.78 252.322 413.474 248.924 423.952 248.924C438.22 248.924 445.354 257.838 445.354 275.666V275.833C445.689 275.944 446.302 276 447.194 276C450.872 276 455.108 275.053 459.901 273.159C464.694 271.153 469.042 268.757 472.943 265.972L474.448 270.484C471.215 273.939 466.98 276.891 461.74 279.343C456.613 281.683 450.984 283.354 444.853 284.357C443.961 294.497 441.676 303.355 437.997 310.932C434.319 318.509 429.582 324.359 423.785 328.482C417.989 332.604 411.691 334.666 404.891 334.666ZM411.579 319.623C414.254 319.623 416.93 318.119 419.605 315.111C422.28 311.991 424.621 307.812 426.628 302.575C428.634 297.227 430.083 291.321 430.975 284.858C427.965 284.19 426.46 281.85 426.46 277.839C426.46 273.27 428.188 270.262 431.644 268.813C431.421 265.136 430.863 262.629 429.972 261.292C429.08 259.843 427.519 259.119 425.29 259.119C421.611 259.119 418.044 261.793 414.589 267.142C411.133 272.49 408.347 278.897 406.229 286.363C404.111 293.828 403.052 300.402 403.052 306.085C403.052 311.433 403.665 315.055 404.891 316.949C406.117 318.732 408.347 319.623 411.579 319.623Z" fill="#FF6C00"/>
<path d="M465.327 250.428H489.405L487.231 260.79C491.021 257.448 494.421 254.885 497.431 253.102C500.552 251.319 503.896 250.428 507.463 250.428C511.03 250.428 513.817 251.653 515.823 254.105C517.941 256.556 519 259.509 519 262.963C519 266.195 517.941 269.036 515.823 271.487C513.705 273.939 510.751 275.164 506.961 275.164C504.509 275.164 502.837 274.607 501.945 273.493C501.165 272.267 500.552 270.54 500.106 268.312C499.772 266.863 499.437 265.805 499.103 265.136C498.768 264.467 498.155 264.133 497.263 264.133C494.923 264.133 492.916 264.635 491.244 265.637C489.684 266.529 487.621 268.144 485.058 270.484L471.681 333.997H447.604L465.327 250.428Z" fill="#FF6C00"/>
<path d="M325.281 224.843L306.184 304.079C305.404 307.088 305.014 310.263 305.014 313.606C305.014 320.403 307.02 325.696 311.033 329.484C315.046 333.161 320.843 335 328.423 335C339.347 335 348.208 331.88 355.008 325.64C361.919 319.4 366.824 311.935 369.722 303.244C372.732 294.441 374.237 286.195 374.237 278.507C374.237 259.453 367.66 249.926 354.506 249.926C352.5 249.926 350.494 250.261 348.487 250.929C346.481 251.486 343.917 252.712 340.796 254.606L350.027 221.5L325.281 224.843ZM423.952 248.924C413.474 248.924 404.78 252.322 397.868 259.119C390.957 265.805 385.941 273.771 382.82 283.02C379.699 292.268 378.138 300.681 378.138 308.258C378.138 317.395 380.535 324.08 385.328 328.314C390.121 332.549 396.642 334.666 404.891 334.666C411.691 334.666 417.989 332.604 423.785 328.482C429.582 324.359 434.319 318.509 437.997 310.932C441.676 303.355 443.961 294.497 444.853 284.357C449.888 283.533 454.584 282.258 458.943 280.532L447.604 333.997H471.681L485.058 270.484C487.621 268.144 489.684 266.529 491.244 265.637C492.916 264.635 494.923 264.133 497.263 264.133C498.155 264.133 498.768 264.467 499.103 265.136C499.437 265.805 499.772 266.863 500.106 268.312C500.552 270.54 501.165 272.267 501.945 273.493C502.837 274.607 504.509 275.164 506.961 275.164C510.633 275.164 513.52 274.014 515.622 271.714L515.823 271.487C517.941 269.036 519 266.195 519 262.963C519 259.509 517.941 256.556 515.823 254.105C513.817 251.653 511.03 250.428 507.463 250.428C503.896 250.428 500.552 251.319 497.431 253.102C494.421 254.885 491.021 257.448 487.231 260.79L489.405 250.428H465.327L460.566 272.875C460.345 272.97 460.124 273.066 459.901 273.159C455.108 275.053 450.872 276 447.194 276C446.302 276 445.689 275.944 445.354 275.833V275.666C445.354 257.838 438.22 248.924 423.952 248.924ZM425.29 259.119C427.519 259.119 429.08 259.843 429.972 261.292C430.863 262.629 431.421 265.136 431.644 268.813C428.188 270.262 426.46 273.27 426.46 277.839C426.46 281.85 427.965 284.19 430.975 284.858C430.083 291.321 428.634 297.227 426.628 302.575C424.621 307.812 422.28 311.991 419.605 315.111C416.93 318.119 414.254 319.623 411.579 319.623C408.347 319.623 406.117 318.732 404.891 316.949C403.665 315.055 403.052 311.433 403.052 306.085C403.052 300.402 404.111 293.828 406.229 286.363C408.347 278.897 411.133 272.49 414.589 267.142C418.044 261.793 421.611 259.119 425.29 259.119ZM348.487 261.793C351.274 261.793 353.447 263.353 355.008 266.473C356.569 269.593 357.349 273.381 357.349 277.839C357.349 283.744 356.457 289.928 354.674 296.391C352.89 302.742 350.494 308.091 347.484 312.436C344.474 316.67 341.242 318.788 337.786 318.788C331.878 318.788 328.924 316.225 328.924 311.099C328.924 309.873 329.091 308.592 329.426 307.255L338.622 264.802C339.402 263.799 340.796 263.075 342.802 262.629C344.92 262.072 346.815 261.793 348.487 261.793ZM554 262.963C554 274.62 549.903 285.578 542.308 294.369C533.896 304.106 522.999 308.685 512.533 309.854L505.93 341.21C502.519 357.405 488.231 368.997 471.681 368.997H447.604C441.553 368.997 435.689 367.429 430.532 364.548C422.546 367.882 413.933 369.666 404.891 369.666C392.846 369.666 379.817 366.981 368.303 359.282C356.1 366.815 342.298 370 328.423 370C315.539 370 300.014 366.858 287.388 355.289C287.26 355.172 287.133 355.054 287.007 354.935C274.424 343.055 270.014 327.645 270.014 313.606C270.014 307.717 270.684 301.773 272.158 295.879L291.255 216.643L291.42 215.987C295.003 202.282 306.513 192.061 320.596 190.158L345.342 186.815C357.009 185.239 368.687 189.634 376.42 198.512C382.598 205.605 385.595 214.801 384.938 223.995C385.168 224.153 385.398 224.312 385.626 224.474C397.152 217.328 410.268 213.924 423.952 213.924C432.185 213.924 440.98 215.47 449.201 219.364C454.058 216.84 459.555 215.428 465.327 215.428H489.405C492.117 215.428 494.79 215.744 497.38 216.351C500.677 215.74 504.046 215.428 507.463 215.428L508.644 215.442C520.785 215.736 533.498 220.578 542.731 231.724C550.43 240.879 554 251.912 554 262.963Z" fill="white"/>
<path d="M482.805 362.082C482.935 362.591 483 363.079 483 363.545C483 365.03 482.415 366.43 481.245 367.745C480.118 369.061 478.687 369.994 476.954 370.545C476.217 370.758 475.35 370.864 474.353 370.864C473.963 374.47 472.858 377.652 471.037 380.409C469.26 383.124 466.919 385.245 464.015 386.773C461.111 388.258 457.861 389 454.263 389C450.146 389 446.895 387.982 444.511 385.945C442.17 383.909 441 381.152 441 377.673C441 375.339 441.52 373.048 442.56 370.8C443.644 368.509 445.096 366.536 446.916 364.882C448.78 363.227 450.817 362.082 453.028 361.445V361.191C451.684 360.088 450.731 358.921 450.167 357.691C449.604 356.461 449.322 354.933 449.322 353.109C449.322 350.818 449.95 348.676 451.207 346.682C452.508 344.645 454.241 343.033 456.409 341.845C458.619 340.615 461.003 340 463.56 340C466.508 340 468.935 340.827 470.842 342.482C472.749 344.136 473.703 346.236 473.703 348.782C473.703 350.521 473.248 351.942 472.337 353.045C471.427 354.148 470.235 354.7 468.762 354.7C467.115 354.7 465.793 354.042 464.796 352.727C465.576 352.261 466.204 351.539 466.681 350.564C467.201 349.588 467.461 348.548 467.461 347.445C467.461 346.258 467.158 345.324 466.551 344.645C465.944 343.967 465.121 343.627 464.081 343.627C462.954 343.627 461.87 344.052 460.83 344.9C459.789 345.748 458.944 346.894 458.294 348.336C457.687 349.736 457.384 351.221 457.384 352.791C457.384 354.912 457.969 356.715 459.139 358.2C460.31 359.642 461.913 360.618 463.95 361.127V361.382C461.913 361.764 459.985 362.697 458.164 364.182C456.387 365.624 454.957 367.406 453.873 369.527C452.833 371.606 452.313 373.727 452.313 375.891C452.313 378.097 452.876 379.815 454.003 381.045C455.13 382.276 456.69 382.891 458.684 382.891C460.548 382.891 462.39 382.382 464.211 381.364C466.031 380.345 467.591 378.924 468.892 377.1C470.192 375.276 471.059 373.218 471.492 370.927C470.539 370.927 469.542 371.055 468.502 371.309C466.118 372.073 464.406 373.197 463.365 374.682L463.17 374.745C462.694 374.152 462.303 373.388 462 372.455C461.827 371.945 461.74 371.394 461.74 370.8C461.74 369.358 462.26 368.064 463.3 366.918C464.341 365.773 465.641 364.967 467.201 364.5C468.415 364.161 470.084 363.906 472.207 363.736C473.638 363.652 474.873 363.503 475.913 363.291C476.91 362.994 477.907 362.506 478.904 361.827C479.944 361.106 480.724 360.406 481.245 359.727H481.375C482.025 360.364 482.502 361.148 482.805 362.082Z" fill="#FFBA47"/>
<path d="M464.49 305.009C473.82 305.184 484.07 308.023 492.9 315.302L493.778 316.044L494.227 316.439C500.137 321.706 504.356 328.278 506.662 335.528C511.065 340.088 514.082 345.35 515.907 350.711L516.091 351.262L516.26 351.798C516.425 352.335 516.577 352.876 516.716 353.42C517.48 356.41 518 359.818 518 363.546C518 374.862 513.386 384.07 507.821 390.519C506.229 392.377 504.514 394.067 502.701 395.59C501.972 396.937 501.18 398.267 500.321 399.575L500.322 399.576C500.307 399.6 500.29 399.624 500.274 399.647C500.265 399.662 500.256 399.677 500.246 399.691L500.245 399.69C495.181 407.386 488.373 413.508 480.307 417.75C480.188 417.812 480.069 417.874 479.949 417.936C471.621 422.194 462.82 424 454.263 424C444.461 424 432.259 421.511 421.778 412.558C421.698 412.489 421.617 412.42 421.537 412.351C410.92 403.114 406.293 390.709 406.014 378.821L406 377.673L406.005 376.95C406.111 369.499 407.853 362.464 410.795 356.104L410.921 355.835C411.959 353.641 413.141 351.517 414.464 349.477C415.061 341.731 417.554 334.435 421.6 328.018C421.636 327.96 421.672 327.903 421.708 327.846C426.204 320.804 432.276 315.204 439.389 311.264L439.388 311.263C439.422 311.244 439.457 311.226 439.491 311.207C439.523 311.19 439.554 311.171 439.586 311.153L439.587 311.154C447.009 307.067 455.189 305 463.561 305L464.49 305.009ZM463.56 340C461.003 340 458.619 340.615 456.409 341.845C454.241 343.033 452.508 344.645 451.207 346.682C449.95 348.676 449.322 350.818 449.322 353.109C449.322 354.933 449.604 356.461 450.167 357.691C450.731 358.921 451.684 360.088 453.028 361.191V361.445C450.817 362.082 448.78 363.227 446.916 364.882C445.096 366.536 443.644 368.509 442.56 370.8C441.52 373.048 441 375.339 441 377.673C441 381.152 442.17 383.909 444.511 385.945C446.895 387.982 450.146 389 454.263 389C457.861 389 461.111 388.258 464.015 386.773C466.919 385.245 469.26 383.124 471.037 380.409C472.858 377.652 473.963 374.47 474.353 370.864C475.35 370.864 476.217 370.758 476.954 370.545C478.687 369.994 480.118 369.061 481.245 367.745C482.415 366.43 483 365.03 483 363.545C483 363.079 482.935 362.591 482.805 362.082C482.502 361.148 482.025 360.364 481.375 359.727H481.245C480.724 360.406 479.944 361.106 478.904 361.827C477.907 362.506 476.91 362.994 475.913 363.291C474.873 363.503 473.638 363.652 472.207 363.736C470.084 363.906 468.415 364.161 467.201 364.5C465.641 364.967 464.341 365.773 463.3 366.918C462.26 368.064 461.74 369.358 461.74 370.8C461.74 371.394 461.827 371.945 462 372.455C462.303 373.388 462.694 374.152 463.17 374.745L463.365 374.682C464.406 373.197 466.118 372.073 468.502 371.309C469.542 371.055 470.539 370.927 471.492 370.927C471.059 373.218 470.192 375.276 468.892 377.1C467.591 378.924 466.031 380.345 464.211 381.364C462.39 382.382 460.548 382.891 458.684 382.891C456.69 382.891 455.13 382.276 454.003 381.045C452.876 379.815 452.313 378.097 452.313 375.891C452.313 373.727 452.833 371.606 453.873 369.527C454.957 367.406 456.387 365.624 458.164 364.182C459.985 362.697 461.913 361.764 463.95 361.382V361.127C461.913 360.618 460.31 359.642 459.139 358.2C457.969 356.715 457.384 354.912 457.384 352.791C457.384 351.221 457.687 349.736 458.294 348.336C458.944 346.894 459.789 345.748 460.83 344.9C461.87 344.052 462.954 343.627 464.081 343.627C465.121 343.627 465.944 343.967 466.551 344.645C467.158 345.324 467.461 346.258 467.461 347.445C467.461 348.548 467.201 349.588 466.681 350.564C466.204 351.539 465.576 352.261 464.796 352.727C465.793 354.042 467.115 354.7 468.762 354.7C470.235 354.7 471.427 354.148 472.337 353.045C473.248 351.942 473.703 350.521 473.703 348.782C473.703 346.236 472.749 344.136 470.842 342.482C468.935 340.827 466.508 340 463.56 340Z" fill="white"/>
<path d="M222.59 433C216.993 433 212.328 431.081 208.597 427.244C204.866 423.407 203 417.405 203 409.238C203 401.957 204.424 394.331 207.271 386.361C210.217 378.293 214.538 371.504 220.233 365.994C226.027 360.386 232.9 357.581 240.854 357.581C244.88 357.581 247.875 358.27 249.839 359.648C251.803 361.025 252.785 362.845 252.785 365.108V366.142L254.405 358.319H275.615L265.01 408.5C264.617 409.976 264.421 411.55 264.421 413.223C264.421 417.454 266.434 419.569 270.46 419.569C273.209 419.569 275.566 418.29 277.53 415.732C279.592 413.174 281.212 409.828 282.39 405.696H288.577C284.943 416.322 280.426 423.554 275.026 427.392C269.723 431.131 264.372 433 258.971 433C254.847 433 251.508 431.868 248.955 429.605C246.5 427.244 245.027 423.849 244.536 419.422C241.689 423.456 238.497 426.752 234.962 429.31C231.526 431.77 227.401 433 222.59 433ZM232.164 418.684C234.619 418.684 237.024 417.552 239.381 415.289C241.836 412.928 243.505 409.73 244.389 405.696L251.459 372.34C251.459 371.061 250.968 369.831 249.986 368.651C249.004 367.371 247.482 366.732 245.42 366.732C241.492 366.732 237.957 369.044 234.815 373.669C231.673 378.195 229.218 383.705 227.45 390.199C225.683 396.594 224.799 402.252 224.799 407.172C224.799 412.091 225.487 415.24 226.861 416.617C228.334 417.995 230.102 418.684 232.164 418.684Z" fill="#FF6C00"/>
<path d="M292.46 358.319H313.67L311.756 367.47C315.094 364.518 318.089 362.255 320.74 360.681C323.49 359.106 326.436 358.319 329.578 358.319C332.72 358.319 335.175 359.402 336.943 361.566C338.808 363.731 339.741 366.338 339.741 369.389C339.741 372.242 338.808 374.751 336.943 376.916C335.077 379.08 332.475 380.163 329.136 380.163C326.976 380.163 325.503 379.671 324.717 378.687C324.03 377.604 323.49 376.079 323.097 374.111C322.802 372.832 322.508 371.898 322.213 371.307C321.919 370.717 321.379 370.422 320.593 370.422C318.531 370.422 316.764 370.864 315.291 371.75C313.916 372.537 312.099 373.964 309.841 376.03L298.057 432.114H276.847L292.46 358.319Z" fill="#FF6C00"/>
<path d="M352.405 433C347.691 433 343.862 431.524 340.916 428.572C338.068 425.62 336.645 421.193 336.645 415.289C336.645 412.829 337.037 409.632 337.823 405.696L346.66 364.223H341.8L342.978 358.319H347.839L352.257 337.952L374.057 335L369.049 358.319H377.886L376.708 364.223H367.87L358.444 408.5C358.051 409.976 357.855 411.55 357.855 413.223C357.855 415.191 358.296 416.617 359.18 417.503C360.162 418.29 361.733 418.684 363.893 418.684C366.741 418.684 369.392 417.503 371.847 415.142C374.302 412.682 376.07 409.533 377.15 405.696H383.336C379.703 416.322 375.039 423.554 369.343 427.392C363.648 431.131 358.002 433 352.405 433Z" fill="#FF6C00"/>
<path d="M397.859 433C390.691 433 385.094 431.131 381.068 427.392C377.042 423.554 375.029 417.601 375.029 409.533C375.029 402.744 376.355 395.266 379.006 387.099C381.657 378.933 385.978 371.898 391.968 365.994C397.957 359.992 405.568 356.991 414.798 356.991C425.599 356.991 431 361.714 431 371.16C431 376.67 429.429 381.737 426.287 386.361C423.144 390.986 418.971 394.725 413.767 397.578C408.563 400.333 403.015 401.908 397.123 402.301C396.926 404.466 396.828 405.942 396.828 406.729C396.828 414.896 399.872 418.979 405.96 418.979C408.71 418.979 411.656 418.241 414.798 416.765C417.94 415.289 420.788 413.42 423.341 411.157C420.69 425.719 412.196 433 397.859 433ZM398.154 395.217C401.885 395.118 405.371 393.889 408.612 391.527C411.95 389.166 414.601 386.165 416.565 382.524C418.627 378.785 419.659 374.899 419.659 370.864C419.659 366.83 418.431 364.813 415.976 364.813C412.539 364.813 409.103 367.962 405.666 374.259C402.327 380.458 399.823 387.444 398.154 395.217Z" fill="#FF6C00"/>
<path d="M369.36 300.316C380.658 298.787 391.994 302.856 399.739 311.222C402.799 314.527 405.146 318.339 406.72 322.429C409.386 322.136 412.083 321.991 414.798 321.991C424.527 321.991 438.36 324.017 449.989 334.187C462.515 345.14 466 359.73 466 371.159C466 382.48 462.994 393.211 457.317 402.756C458.482 407.46 458.681 412.447 457.774 417.426C455.477 430.044 449.832 443.764 437.761 454.112C425.554 464.576 410.974 468 397.859 468C390.408 468 382.365 466.871 374.566 463.849C367.761 466.441 360.342 468 352.404 468C341.843 468 330.938 465.023 321.587 458.022C315.319 463.712 307.021 467.114 298.058 467.114H276.848C274.992 467.114 273.155 466.964 271.35 466.677C267.396 467.53 263.265 468 258.971 468C253.288 468 247.222 467.131 241.259 464.99C235.105 467.077 228.78 468 222.59 468C208.024 468 194.155 462.597 183.504 451.644C170.77 438.548 168 421.835 168 409.238C168 397.351 170.33 385.732 174.312 374.585C174.34 374.509 174.367 374.433 174.395 374.357C179.001 361.741 186.085 350.333 195.896 340.84C208.116 329.014 223.679 322.581 240.854 322.581L242.188 322.594C244.774 322.643 247.901 322.851 251.322 323.454C252.339 323.365 253.368 323.319 254.405 323.319H275.615C278.479 323.319 281.3 323.674 284.025 324.349C286.737 323.676 289.564 323.319 292.46 323.319H313.67C315.875 323.319 318.055 323.531 320.186 323.935C325.009 312.892 335.297 304.929 347.561 303.269L369.36 300.316ZM240.854 357.581C232.9 357.581 226.027 360.386 220.233 365.994C214.538 371.504 210.217 378.293 207.271 386.361C204.424 394.331 203 401.957 203 409.238C203 417.405 204.866 423.407 208.597 427.244C212.328 431.081 216.993 433 222.59 433C227.401 433 231.526 431.77 234.962 429.31C238.497 426.752 241.689 423.456 244.536 419.422C245.027 423.849 246.5 427.244 248.955 429.605C251.508 431.868 254.847 433 258.971 433C264.372 433 269.723 431.131 275.026 427.392C276.226 426.539 277.381 425.517 278.494 424.329L276.847 432.114H298.057L309.841 376.03C312.099 373.964 313.916 372.537 315.291 371.75C316.764 370.864 318.531 370.422 320.593 370.422C321.379 370.422 321.919 370.717 322.213 371.307C322.508 371.898 322.802 372.832 323.097 374.111C323.49 376.079 324.03 377.604 324.717 378.687C325.503 379.671 326.976 380.163 329.136 380.163C332.475 380.163 335.077 379.08 336.943 376.916C338.808 374.751 339.741 372.242 339.741 369.389C339.741 366.338 338.808 363.731 336.943 361.566C335.175 359.402 332.72 358.319 329.578 358.319C326.436 358.319 323.49 359.106 320.74 360.681C318.089 362.255 315.094 364.518 311.756 367.47L313.67 358.319H292.46L282.437 405.695L282.39 405.696C281.212 409.828 279.592 413.174 277.53 415.732C275.566 418.29 273.209 419.569 270.46 419.569C266.434 419.569 264.421 417.454 264.421 413.223C264.421 411.55 264.617 409.976 265.01 408.5L275.615 358.319H254.405L252.785 366.142V365.108C252.785 362.845 251.803 361.025 249.839 359.648C247.875 358.27 244.88 357.581 240.854 357.581ZM352.257 337.952L347.839 358.319H342.978L341.8 364.223H346.66L337.823 405.696C337.037 409.632 336.645 412.829 336.645 415.289C336.645 421.193 338.068 425.62 340.916 428.572C343.862 431.524 347.691 433 352.405 433C358.002 433 363.648 431.131 369.343 427.392C371.951 425.634 374.342 423.164 376.518 419.982C377.524 422.989 379.04 425.459 381.068 427.392C385.094 431.131 390.691 433 397.859 433C412.196 433 420.69 425.719 423.341 411.157C420.788 413.42 417.94 415.289 414.798 416.765C411.656 418.241 408.71 418.979 405.96 418.979C399.872 418.979 396.828 414.896 396.828 406.729C396.828 405.942 396.926 404.466 397.123 402.301C403.015 401.908 408.563 400.333 413.767 397.578C418.971 394.725 423.144 390.986 426.287 386.361C429.429 381.737 431 376.67 431 371.16C431 361.714 425.599 356.991 414.798 356.991C405.568 356.991 397.957 359.992 391.968 365.994C385.978 371.898 381.657 378.933 379.006 387.099C376.355 395.266 375.029 402.744 375.029 409.533C375.029 409.985 375.036 410.43 375.049 410.869C374.158 412.47 373.092 413.895 371.847 415.142C369.392 417.503 366.741 418.684 363.893 418.684C361.733 418.684 360.162 418.29 359.18 417.503C358.296 416.617 357.855 415.191 357.855 413.223C357.855 411.55 358.051 409.976 358.444 408.5L367.87 364.223H376.708L377.886 358.319H369.049L374.057 335L352.257 337.952ZM245.42 366.732C247.482 366.732 249.004 367.371 249.986 368.651C250.968 369.831 251.459 371.061 251.459 372.34L244.389 405.696C243.505 409.73 241.836 412.928 239.381 415.289C237.024 417.552 234.619 418.684 232.164 418.684C230.102 418.684 228.334 417.995 226.861 416.617C225.487 415.24 224.799 412.091 224.799 407.172C224.799 402.252 225.683 396.594 227.45 390.199C229.218 383.705 231.673 378.195 234.815 373.669C237.957 369.044 241.492 366.732 245.42 366.732ZM415.976 364.813C418.431 364.813 419.659 366.83 419.659 370.864C419.659 374.899 418.627 378.785 416.565 382.524C414.601 386.165 411.95 389.166 408.612 391.527C405.371 393.889 401.885 395.118 398.154 395.217C399.823 387.444 402.327 380.458 405.666 374.259C409.103 367.962 412.539 364.813 415.976 364.813Z" fill="white"/>
<path d="M289.873 327.604C282.387 337.326 242.461 337.604 226.935 327.604C211.408 317.605 220.835 302.05 220.835 302.05C224.994 279.274 237.748 253.165 249.393 236.222C261.038 219.278 292.369 273.719 296.25 293.718C300.132 313.716 297.359 317.883 289.873 327.604Z" fill="#FFA42F"/>
<path d="M235.53 316.771C246.227 317.882 252.932 319.827 265.197 323.715C277.462 327.604 277.462 333.476 277.462 333.476C262.213 336.696 238.177 334.845 226.935 327.604C218.371 322.089 217.399 314.885 218.249 309.532C218.249 309.532 224.833 315.661 235.53 316.771Z" fill="#F18A0A"/>
<path d="M249.393 236.222C252.494 231.709 256.992 232.26 261.995 235.875C261.995 235.875 264.088 255.387 249.393 268.164C234.698 280.941 224.833 286.328 224.833 286.328C230.673 267.999 240.366 249.356 249.393 236.222Z" fill="#F18A0A"/>
<path d="M254.078 198.009C254.514 198 254.946 197.998 255.374 198.003C255.382 198.003 255.391 198.003 255.399 198.003C255.414 198.003 255.43 198.004 255.444 198.004C255.798 198.008 256.15 198.018 256.499 198.031C256.755 198.041 257.01 198.053 257.264 198.067C257.412 198.076 257.56 198.085 257.708 198.095C257.911 198.108 258.114 198.123 258.315 198.14C258.498 198.154 258.679 198.171 258.859 198.188C258.868 198.188 258.878 198.189 258.887 198.189C259.24 198.223 259.59 198.261 259.938 198.303C259.989 198.309 260.04 198.316 260.091 198.322C260.411 198.362 260.728 198.404 261.043 198.45C261.082 198.456 261.122 198.463 261.161 198.469C261.47 198.515 261.776 198.563 262.079 198.615C262.149 198.627 262.219 198.64 262.288 198.652C262.574 198.703 262.857 198.756 263.139 198.812C263.2 198.824 263.262 198.836 263.323 198.849C263.607 198.906 263.887 198.965 264.166 199.027C264.23 199.042 264.294 199.056 264.358 199.07C264.613 199.128 264.866 199.189 265.116 199.251C265.228 199.278 265.339 199.306 265.449 199.334C265.632 199.381 265.814 199.428 265.995 199.477C266.148 199.517 266.299 199.558 266.45 199.601C266.628 199.65 266.805 199.701 266.98 199.753C267.116 199.793 267.251 199.831 267.386 199.872C267.546 199.921 267.706 199.971 267.864 200.021C268.034 200.075 268.203 200.129 268.371 200.184C268.457 200.212 268.542 200.24 268.627 200.269C269.144 200.441 269.652 200.62 270.149 200.806C270.255 200.845 270.359 200.886 270.464 200.926C270.64 200.993 270.816 201.06 270.99 201.129C271.016 201.139 271.042 201.15 271.068 201.16C272.067 201.557 273.021 201.977 273.931 202.408C274.011 202.446 274.092 202.484 274.172 202.522C274.333 202.6 274.492 202.678 274.65 202.756C274.736 202.798 274.822 202.84 274.907 202.883C275.06 202.959 275.211 203.036 275.361 203.113C275.458 203.163 275.554 203.212 275.649 203.262C275.784 203.332 275.918 203.403 276.051 203.474C276.16 203.532 276.267 203.59 276.374 203.647C276.481 203.705 276.586 203.763 276.691 203.82C276.839 203.902 276.986 203.983 277.13 204.064C277.202 204.105 277.274 204.146 277.346 204.187C277.484 204.265 277.62 204.343 277.754 204.421C277.844 204.473 277.933 204.525 278.021 204.577C278.146 204.651 278.269 204.725 278.391 204.798C278.475 204.848 278.559 204.898 278.643 204.948C278.723 204.997 278.802 205.046 278.881 205.095C279.343 205.379 279.786 205.659 280.208 205.935C280.221 205.943 280.234 205.951 280.247 205.959C280.255 205.964 280.263 205.971 280.271 205.977C280.438 206.086 280.6 206.196 280.761 206.304C280.972 206.445 281.184 206.587 281.394 206.731C281.53 206.825 281.663 206.92 281.794 207.012C281.971 207.136 282.148 207.26 282.323 207.386L282.492 207.505L282.785 207.723C292.02 214.491 299.38 223.851 304.426 231.074C310.539 239.827 316.118 249.657 320.494 258.794C324.605 267.376 328.792 277.687 330.609 287.049C332.736 298.005 334.342 310.271 331.354 322.697C328.221 335.73 320.853 344.74 317.604 348.959C308.011 361.417 293.781 365.538 287.409 367.103C286.256 367.386 285.089 367.643 283.915 367.88C283.604 367.943 283.292 368.004 282.979 368.063C282.808 368.096 282.638 368.129 282.467 368.161C282.043 368.24 281.617 368.315 281.189 368.389C281.006 368.42 280.822 368.45 280.638 368.48C280.304 368.536 279.97 368.59 279.635 368.642C279.491 368.664 279.346 368.686 279.202 368.708C278.746 368.777 278.288 368.844 277.829 368.907C277.652 368.932 277.475 368.953 277.298 368.977C277.002 369.016 276.706 369.054 276.409 369.091C276.194 369.117 275.979 369.144 275.764 369.169C275.461 369.205 275.159 369.238 274.855 369.271C274.684 369.29 274.512 369.31 274.341 369.328C273.901 369.374 273.46 369.418 273.018 369.459C272.799 369.479 272.58 369.498 272.361 369.518C272.091 369.541 271.821 369.564 271.551 369.586C271.355 369.602 271.159 369.618 270.964 369.633C270.574 369.662 270.183 369.69 269.792 369.716C269.578 369.73 269.363 369.744 269.149 369.757C268.822 369.777 268.495 369.796 268.168 369.813C267.969 369.824 267.769 369.833 267.57 369.843C267.292 369.856 267.014 369.869 266.736 369.881C266.512 369.89 266.288 369.9 266.064 369.908C265.634 369.924 265.203 369.939 264.771 369.95C264.615 369.954 264.459 369.957 264.304 369.961C264.003 369.968 263.702 369.974 263.401 369.979C263.117 369.984 262.832 369.987 262.549 369.99C262.431 369.991 262.314 369.992 262.196 369.993C261.968 369.995 261.741 369.999 261.514 370C261.413 370 261.313 369.998 261.213 369.998C261.037 369.998 260.861 369.997 260.685 369.996C260.256 369.995 259.826 369.992 259.396 369.986C259.13 369.983 258.865 369.979 258.6 369.974C258.377 369.969 258.155 369.965 257.932 369.96C257.679 369.954 257.427 369.947 257.175 369.939C256.929 369.932 256.683 369.925 256.437 369.917C256.019 369.903 255.602 369.886 255.186 369.868C255.02 369.861 254.854 369.853 254.688 369.845C254.35 369.829 254.012 369.812 253.676 369.794C253.489 369.784 253.303 369.774 253.116 369.763C252.8 369.744 252.483 369.724 252.168 369.703C251.942 369.688 251.715 369.673 251.488 369.657C251.103 369.63 250.719 369.602 250.336 369.571C250.144 369.556 249.952 369.54 249.76 369.524C249.473 369.501 249.187 369.476 248.902 369.45C248.684 369.431 248.466 369.411 248.247 369.391C247.86 369.354 247.474 369.316 247.09 369.276C247.057 369.273 247.024 369.269 246.991 369.266C246.812 369.247 246.634 369.227 246.455 369.208C246.145 369.174 245.833 369.139 245.518 369.103C245.336 369.082 245.154 369.061 244.973 369.039C244.535 368.987 244.092 368.931 243.645 368.873C243.514 368.856 243.384 368.838 243.254 368.82C242.803 368.76 242.347 368.697 241.887 368.631C241.862 368.627 241.838 368.624 241.813 368.62C240.77 368.469 239.706 368.3 238.624 368.113C238.577 368.105 238.529 368.097 238.481 368.089C236.95 367.823 235.385 367.519 233.797 367.173C233.758 367.164 233.72 367.156 233.682 367.147C233.19 367.04 232.696 366.928 232.2 366.812C232.176 366.806 232.152 366.801 232.128 366.795C231.098 366.553 230.061 366.294 229.02 366.014C223.838 364.624 218.241 362.662 212.838 359.843C212.798 359.822 212.758 359.801 212.719 359.78C212.38 359.602 212.041 359.421 211.704 359.236C211.632 359.197 211.559 359.158 211.486 359.118C211.407 359.074 211.328 359.03 211.249 358.985C211.075 358.888 210.902 358.791 210.729 358.692C210.634 358.638 210.54 358.585 210.445 358.53C210.211 358.395 209.978 358.258 209.746 358.12C209.669 358.074 209.592 358.028 209.515 357.981C209.317 357.862 209.119 357.742 208.923 357.621C208.864 357.585 208.805 357.547 208.746 357.511C208.491 357.352 208.237 357.193 207.984 357.03C207.681 356.835 207.38 356.636 207.08 356.436C207.03 356.402 206.98 356.367 206.93 356.333C206.694 356.175 206.46 356.016 206.228 355.854C206.117 355.778 206.007 355.699 205.897 355.622C205.719 355.497 205.541 355.372 205.364 355.245C205.265 355.174 205.166 355.1 205.067 355.028C204.863 354.88 204.66 354.73 204.458 354.579C204.391 354.529 204.325 354.479 204.259 354.429C204.05 354.271 203.842 354.112 203.635 353.951C203.553 353.888 203.471 353.825 203.39 353.761C203.172 353.59 202.955 353.418 202.74 353.244C202.693 353.206 202.645 353.167 202.598 353.129C202.392 352.962 202.188 352.793 201.984 352.623C201.901 352.553 201.817 352.483 201.733 352.413C201.523 352.235 201.313 352.055 201.105 351.874C201.06 351.834 201.014 351.796 200.969 351.756C200.439 351.292 199.919 350.82 199.409 350.339C199.359 350.291 199.31 350.242 199.26 350.194C199.054 349.999 198.849 349.803 198.646 349.604C198.605 349.564 198.564 349.522 198.522 349.481C198.306 349.268 198.091 349.054 197.879 348.837C197.854 348.811 197.829 348.785 197.804 348.76C197.588 348.539 197.374 348.316 197.162 348.092C197.118 348.045 197.074 347.998 197.03 347.951C196.854 347.764 196.68 347.575 196.507 347.386C196.423 347.294 196.339 347.201 196.256 347.108C196.112 346.949 195.97 346.787 195.828 346.626C195.741 346.526 195.653 346.427 195.566 346.327C195.411 346.147 195.258 345.966 195.104 345.784C195.048 345.717 194.991 345.651 194.936 345.584C194.782 345.4 194.63 345.214 194.479 345.027C194.402 344.933 194.324 344.838 194.248 344.743C194.094 344.551 193.943 344.356 193.792 344.161C193.739 344.092 193.684 344.024 193.631 343.955C193.44 343.707 193.251 343.457 193.064 343.205C193.006 343.126 192.948 343.048 192.891 342.969C192.733 342.753 192.576 342.537 192.421 342.318C192.291 342.134 192.163 341.948 192.035 341.763C191.973 341.672 191.91 341.581 191.848 341.49C191.744 341.338 191.643 341.185 191.541 341.032C191.451 340.897 191.36 340.761 191.271 340.625C191.166 340.464 191.063 340.301 190.96 340.139C190.881 340.015 190.803 339.89 190.726 339.766C190.63 339.613 190.537 339.459 190.443 339.306C190.366 339.179 190.288 339.052 190.212 338.924C190.114 338.759 190.017 338.594 189.921 338.428C189.844 338.295 189.767 338.163 189.691 338.029C189.6 337.869 189.51 337.708 189.42 337.547C189.347 337.416 189.275 337.286 189.204 337.154C189.109 336.979 189.015 336.804 188.922 336.628C188.863 336.517 188.806 336.405 188.748 336.294C188.646 336.098 188.545 335.902 188.445 335.704C188.398 335.611 188.353 335.517 188.307 335.424C188.202 335.212 188.096 335.001 187.994 334.788C187.927 334.648 187.863 334.507 187.797 334.366C187.724 334.21 187.65 334.053 187.578 333.896C187.572 333.882 187.565 333.868 187.559 333.854C187.287 333.257 187.032 332.659 186.789 332.064C186.724 331.905 186.661 331.746 186.598 331.586C186.529 331.412 186.46 331.24 186.394 331.066C186.385 331.044 186.376 331.022 186.367 331C186.342 330.935 186.319 330.87 186.295 330.806C186.204 330.566 186.115 330.328 186.029 330.089C186.003 330.015 185.977 329.941 185.951 329.867C185.862 329.616 185.774 329.365 185.689 329.114C185.675 329.071 185.661 329.028 185.646 328.985C185.563 328.737 185.483 328.488 185.404 328.24C185.377 328.154 185.349 328.069 185.322 327.983C185.252 327.757 185.184 327.53 185.117 327.305C185.095 327.23 185.071 327.156 185.05 327.082C184.985 326.858 184.922 326.634 184.86 326.411C184.833 326.311 184.804 326.212 184.777 326.112C184.541 325.237 184.332 324.368 184.147 323.508C184.105 323.311 184.065 323.114 184.025 322.918C184.004 322.811 183.982 322.704 183.961 322.598C183.924 322.407 183.888 322.217 183.854 322.027C183.839 321.95 183.825 321.873 183.812 321.796C183.777 321.605 183.745 321.415 183.713 321.225C183.693 321.106 183.673 320.987 183.654 320.869C183.625 320.688 183.598 320.508 183.571 320.328C183.556 320.228 183.542 320.128 183.527 320.028C183.501 319.843 183.475 319.659 183.451 319.475C183.439 319.385 183.428 319.296 183.417 319.207C183.395 319.034 183.374 318.862 183.354 318.69C183.334 318.526 183.316 318.361 183.299 318.197C183.288 318.092 183.277 317.987 183.267 317.882C183.253 317.748 183.24 317.614 183.228 317.48C183.206 317.247 183.185 317.015 183.167 316.784C183.147 316.535 183.129 316.286 183.113 316.039C183.088 315.646 183.067 315.255 183.051 314.868C183.047 314.791 183.044 314.714 183.041 314.637C183.035 314.477 183.03 314.317 183.025 314.158C183.022 314.051 183.019 313.945 183.017 313.839C183.014 313.729 183.013 313.619 183.011 313.51C182.979 311.668 183.043 309.91 183.177 308.254C183.217 307.753 183.265 307.258 183.318 306.77C183.349 306.488 183.382 306.209 183.416 305.934C183.434 305.788 183.453 305.643 183.472 305.499C183.513 305.186 183.555 304.877 183.601 304.573C183.618 304.457 183.636 304.341 183.654 304.226C183.664 304.165 183.672 304.105 183.682 304.045C183.708 303.88 183.735 303.716 183.764 303.552C184.583 298.674 185.921 294.628 187.076 291.719C187.169 291.485 187.262 291.255 187.354 291.03C188.445 286.024 189.813 280.987 191.397 275.985C191.427 275.891 191.454 275.797 191.484 275.703C191.523 275.583 191.563 275.463 191.602 275.343C191.761 274.846 191.922 274.35 192.085 273.854C192.159 273.629 192.235 273.403 192.311 273.178C192.453 272.75 192.598 272.323 192.743 271.896C192.805 271.717 192.866 271.537 192.928 271.357C193.121 270.796 193.317 270.234 193.516 269.674C193.569 269.525 193.623 269.376 193.676 269.227C193.838 268.773 194 268.32 194.165 267.868C194.239 267.666 194.312 267.464 194.387 267.263C194.848 266.011 195.319 264.763 195.803 263.521C195.824 263.466 195.846 263.411 195.867 263.356C196.638 261.38 197.437 259.419 198.258 257.476C198.294 257.389 198.332 257.303 198.369 257.216C199.174 255.319 199.999 253.44 200.844 251.583C200.87 251.525 200.896 251.466 200.923 251.408C201.188 250.827 201.456 250.248 201.725 249.671C201.787 249.537 201.849 249.404 201.911 249.271C202.451 248.116 202.998 246.97 203.551 245.835C203.642 245.648 203.732 245.462 203.823 245.275C204.072 244.768 204.321 244.262 204.571 243.759C204.654 243.593 204.738 243.428 204.82 243.263C204.995 242.914 205.171 242.566 205.347 242.219C205.486 241.943 205.625 241.668 205.766 241.394C205.988 240.959 206.211 240.526 206.435 240.095C207.244 238.534 208.065 236.995 208.893 235.479C208.943 235.386 208.994 235.293 209.045 235.2C210.268 232.967 211.508 230.787 212.756 228.669C212.812 228.573 212.869 228.477 212.926 228.382C213.299 227.75 213.673 227.125 214.048 226.505C214.083 226.446 214.119 226.387 214.154 226.328C214.991 224.946 215.83 223.592 216.67 222.271C216.716 222.199 216.762 222.126 216.809 222.054C217.146 221.524 217.485 221 217.822 220.481C217.949 220.287 218.075 220.093 218.201 219.9C218.485 219.468 218.768 219.039 219.051 218.614C219.16 218.45 219.269 218.287 219.378 218.124C219.769 217.541 220.159 216.965 220.549 216.397C221.154 215.518 221.796 214.653 222.473 213.808C222.496 213.778 222.519 213.749 222.543 213.72C222.743 213.471 222.947 213.223 223.153 212.978C223.205 212.916 223.257 212.855 223.31 212.794C223.505 212.564 223.703 212.336 223.903 212.109C223.94 212.068 223.978 212.027 224.015 211.985C224.227 211.747 224.442 211.51 224.66 211.276C224.718 211.214 224.778 211.154 224.836 211.092C225.015 210.902 225.197 210.714 225.38 210.526C225.447 210.457 225.515 210.388 225.583 210.319C225.753 210.148 225.925 209.978 226.098 209.81C229.899 206.099 234.53 202.931 239.914 200.812C239.966 200.792 240.018 200.771 240.07 200.751C240.186 200.706 240.302 200.661 240.419 200.617C240.529 200.576 240.639 200.535 240.749 200.494C240.797 200.476 240.845 200.459 240.894 200.441C241.046 200.386 241.199 200.331 241.353 200.277C241.38 200.268 241.407 200.258 241.434 200.249C245.16 198.951 249.198 198.163 253.51 198.024C253.514 198.024 253.518 198.024 253.522 198.023C253.707 198.018 253.892 198.012 254.078 198.009ZM255.367 233.017C254.844 232.981 254.334 233.004 253.839 233.089C253.779 233.099 253.72 233.113 253.66 233.125C253.593 233.139 253.526 233.151 253.46 233.167C253.412 233.178 253.366 233.192 253.318 233.205C253.242 233.226 253.165 233.247 253.089 233.271C253.042 233.285 252.996 233.302 252.95 233.317C252.878 233.342 252.806 233.367 252.734 233.395C252.689 233.412 252.644 233.431 252.6 233.449C252.526 233.48 252.453 233.511 252.38 233.545C252.33 233.568 252.28 233.593 252.23 233.618C252.167 233.65 252.104 233.682 252.042 233.716C251.991 233.743 251.941 233.772 251.891 233.802C251.827 233.839 251.763 233.877 251.7 233.917C251.649 233.949 251.598 233.982 251.547 234.017C251.489 234.056 251.431 234.096 251.374 234.138C251.323 234.175 251.271 234.211 251.22 234.25C251.16 234.296 251.102 234.343 251.043 234.392C250.994 234.431 250.945 234.471 250.896 234.513C250.835 234.566 250.775 234.622 250.714 234.678C250.671 234.717 250.628 234.755 250.586 234.796C250.518 234.861 250.452 234.93 250.386 234.999C250.351 235.035 250.315 235.07 250.28 235.107C250.217 235.176 250.155 235.247 250.092 235.319C250.051 235.367 250.008 235.413 249.968 235.462C249.925 235.513 249.885 235.566 249.843 235.618C249.69 235.809 249.539 236.009 249.393 236.222C249.064 236.7 248.734 237.187 248.403 237.68C248.308 237.821 248.214 237.964 248.119 238.106C247.857 238.5 247.595 238.899 247.332 239.302C247.262 239.409 247.19 239.517 247.12 239.625C246.826 240.077 246.532 240.534 246.238 240.996C246.176 241.095 246.112 241.193 246.05 241.292C245.718 241.816 245.386 242.346 245.054 242.883C244.976 243.009 244.898 243.136 244.82 243.263C244.556 243.692 244.291 244.125 244.027 244.562C243.921 244.737 243.815 244.914 243.709 245.091C243.472 245.485 243.236 245.882 243 246.282C242.9 246.452 242.799 246.621 242.699 246.791C242.056 247.887 241.415 249.004 240.778 250.14C240.629 250.406 240.481 250.673 240.332 250.941C240.126 251.313 239.92 251.686 239.715 252.061C239.611 252.251 239.506 252.442 239.402 252.633C239.12 253.152 238.839 253.675 238.56 254.2C238.513 254.288 238.465 254.376 238.418 254.465C238.107 255.051 237.798 255.64 237.49 256.233C237.357 256.49 237.225 256.748 237.093 257.006C236.91 257.363 236.727 257.721 236.545 258.08C236.392 258.382 236.24 258.685 236.088 258.988C235.959 259.246 235.831 259.505 235.702 259.765C235.538 260.095 235.373 260.426 235.211 260.758C234.621 261.965 234.04 263.185 233.468 264.414C233.318 264.737 233.168 265.06 233.02 265.384C232.876 265.697 232.733 266.011 232.591 266.325C232.449 266.637 232.307 266.949 232.167 267.263C231.983 267.674 231.801 268.087 231.619 268.501C231.512 268.744 231.405 268.987 231.299 269.23C231.042 269.821 230.787 270.413 230.536 271.007C230.411 271.303 230.288 271.6 230.164 271.896C229.997 272.295 229.831 272.695 229.667 273.095C229.563 273.348 229.461 273.601 229.358 273.854C229.191 274.267 229.026 274.681 228.861 275.095C228.3 276.508 227.756 277.927 227.232 279.349C227.211 279.407 227.19 279.467 227.168 279.525C226.771 280.606 226.385 281.687 226.013 282.77C225.988 282.841 225.963 282.913 225.938 282.985C223.732 289.419 221.966 295.858 220.835 302.05C220.813 302.087 217.98 306.785 218.001 312.666C218.001 312.714 218.002 312.762 218.003 312.811C218.004 312.932 218.006 313.054 218.01 313.177C218.012 313.255 218.016 313.333 218.02 313.412C218.024 313.501 218.029 313.591 218.034 313.681C218.039 313.767 218.045 313.854 218.052 313.94C218.061 314.06 218.071 314.18 218.083 314.3C218.089 314.357 218.093 314.415 218.1 314.473C218.114 314.604 218.13 314.736 218.147 314.868C218.154 314.921 218.161 314.975 218.169 315.028C218.3 315.956 218.512 316.899 218.827 317.848C218.854 317.929 218.884 318.01 218.912 318.091C218.948 318.193 218.984 318.296 219.022 318.398C219.056 318.489 219.092 318.58 219.128 318.671C219.169 318.775 219.21 318.879 219.254 318.983C219.29 319.069 219.327 319.155 219.365 319.24C219.41 319.342 219.456 319.444 219.504 319.546C219.544 319.632 219.585 319.717 219.627 319.803C219.676 319.903 219.727 320.003 219.778 320.103C219.822 320.188 219.866 320.275 219.912 320.36C219.977 320.482 220.046 320.602 220.115 320.724C220.153 320.79 220.19 320.857 220.229 320.924C220.308 321.057 220.391 321.19 220.475 321.323C220.509 321.379 220.543 321.435 220.579 321.49C220.822 321.866 221.085 322.241 221.37 322.612C221.487 322.765 221.608 322.917 221.732 323.068C221.753 323.094 221.773 323.119 221.794 323.145C221.919 323.295 222.047 323.445 222.18 323.595C222.208 323.627 222.236 323.659 222.265 323.69C222.396 323.837 222.532 323.984 222.671 324.13C222.686 324.146 222.701 324.162 222.717 324.178C222.862 324.329 223.01 324.479 223.163 324.629C223.195 324.66 223.228 324.691 223.261 324.723C223.568 325.019 223.892 325.313 224.232 325.604C224.273 325.638 224.313 325.673 224.354 325.707C224.515 325.843 224.68 325.978 224.849 326.112C224.888 326.144 224.929 326.175 224.969 326.207C225.142 326.343 225.32 326.479 225.501 326.613C225.54 326.642 225.58 326.67 225.619 326.699C225.794 326.827 225.972 326.956 226.154 327.082C226.212 327.122 226.271 327.162 226.33 327.202C226.527 327.337 226.729 327.472 226.935 327.604L227.303 327.837C227.342 327.861 227.382 327.884 227.422 327.908C227.463 327.933 227.504 327.959 227.545 327.983C227.615 328.026 227.687 328.067 227.758 328.109C227.951 328.223 228.148 328.336 228.348 328.447C228.404 328.479 228.46 328.511 228.517 328.542C228.755 328.672 228.997 328.8 229.244 328.927C229.283 328.947 229.322 328.966 229.36 328.985C229.57 329.092 229.783 329.197 229.999 329.301C230.075 329.337 230.152 329.374 230.229 329.41C230.46 329.518 230.693 329.625 230.93 329.73C230.956 329.742 230.983 329.755 231.01 329.767C231.276 329.884 231.546 330 231.82 330.113C231.9 330.146 231.981 330.178 232.062 330.211C232.261 330.292 232.463 330.372 232.666 330.451C232.756 330.486 232.845 330.521 232.936 330.556C233.206 330.659 233.479 330.762 233.756 330.861C233.833 330.889 233.911 330.916 233.989 330.943C234.188 331.014 234.389 331.083 234.591 331.151C234.73 331.199 234.869 331.246 235.01 331.292C235.216 331.36 235.424 331.427 235.634 331.493C235.696 331.513 235.757 331.533 235.819 331.553C236.137 331.652 236.459 331.749 236.783 331.844C236.822 331.855 236.861 331.866 236.899 331.877C237.176 331.957 237.455 332.036 237.736 332.113C237.82 332.136 237.903 332.159 237.987 332.182C238.249 332.252 238.512 332.321 238.776 332.389C238.843 332.406 238.91 332.424 238.977 332.441C239.26 332.513 239.545 332.583 239.832 332.651C239.99 332.689 240.149 332.726 240.308 332.763C240.509 332.809 240.711 332.855 240.914 332.9C241.028 332.926 241.142 332.952 241.257 332.977C241.898 333.116 242.548 333.248 243.204 333.373C243.342 333.399 243.48 333.426 243.619 333.451C243.87 333.498 244.121 333.543 244.373 333.587C244.453 333.601 244.532 333.615 244.612 333.629C244.936 333.685 245.261 333.739 245.587 333.791C245.737 333.815 245.888 333.838 246.039 333.861C246.233 333.891 246.427 333.921 246.622 333.95C246.784 333.974 246.945 333.997 247.107 334.021C247.78 334.116 248.457 334.205 249.138 334.287C249.267 334.303 249.397 334.318 249.527 334.333C249.765 334.361 250.003 334.387 250.241 334.413C250.356 334.426 250.471 334.438 250.586 334.45C250.946 334.488 251.307 334.525 251.669 334.559C251.706 334.562 251.743 334.565 251.78 334.568C252.124 334.6 252.468 334.63 252.812 334.658C252.88 334.664 252.948 334.669 253.016 334.675C253.286 334.696 253.556 334.716 253.827 334.735C254.085 334.754 254.343 334.772 254.601 334.788C254.778 334.799 254.955 334.811 255.133 334.821C255.309 334.832 255.485 334.841 255.661 334.851C255.892 334.863 256.122 334.875 256.353 334.886C256.462 334.891 256.571 334.896 256.681 334.9C256.988 334.914 257.296 334.926 257.604 334.937C257.814 334.944 258.024 334.95 258.234 334.956C258.394 334.961 258.553 334.966 258.713 334.97C258.909 334.974 259.106 334.978 259.302 334.981C259.458 334.984 259.615 334.987 259.771 334.989C260.452 334.998 261.132 335.001 261.808 334.996C261.995 334.995 262.182 334.993 262.368 334.991C262.525 334.989 262.681 334.987 262.838 334.984C263.136 334.979 263.434 334.973 263.73 334.965C263.763 334.964 263.795 334.964 263.827 334.963C264.175 334.953 264.522 334.942 264.867 334.929C264.995 334.924 265.122 334.918 265.249 334.913C265.453 334.905 265.657 334.895 265.86 334.885C266.032 334.876 266.203 334.869 266.374 334.859C266.672 334.843 266.968 334.826 267.264 334.807C267.413 334.797 267.561 334.787 267.71 334.776C267.886 334.764 268.061 334.752 268.235 334.739C268.403 334.727 268.57 334.714 268.737 334.7C268.958 334.682 269.178 334.663 269.396 334.644C269.499 334.634 269.6 334.627 269.702 334.617C270.028 334.587 270.353 334.554 270.675 334.521C270.78 334.51 270.884 334.499 270.988 334.487C271.201 334.464 271.414 334.44 271.625 334.415C271.761 334.399 271.896 334.383 272.031 334.366C272.282 334.335 272.531 334.304 272.779 334.271C272.906 334.254 273.032 334.237 273.157 334.22C273.399 334.186 273.639 334.152 273.877 334.116C273.995 334.099 274.112 334.08 274.229 334.062C274.44 334.029 274.65 333.996 274.858 333.962C274.972 333.943 275.085 333.924 275.197 333.905C275.342 333.881 275.487 333.855 275.631 333.829C275.925 333.777 276.216 333.723 276.505 333.667C276.646 333.64 276.787 333.613 276.927 333.585C277.039 333.562 277.151 333.54 277.263 333.517C277.329 333.503 277.396 333.49 277.462 333.476C277.462 333.476 277.461 333.475 277.461 333.474C283.272 332.247 287.808 330.287 289.873 327.604C297.125 318.187 299.954 313.982 296.595 295.547L296.25 293.718C293.402 279.045 275.779 245.834 261.995 235.875C261.991 235.872 261.986 235.869 261.981 235.865C261.679 235.647 261.379 235.44 261.081 235.245L261.063 235.233C261.018 235.204 260.972 235.176 260.927 235.146C260.679 234.987 260.433 234.836 260.188 234.693C260.108 234.647 260.027 234.602 259.947 234.557C259.875 234.516 259.804 234.476 259.732 234.437C259.678 234.407 259.623 234.378 259.568 234.35C259.479 234.302 259.391 234.255 259.303 234.21C259.237 234.176 259.17 234.144 259.104 234.112C259.023 234.072 258.941 234.033 258.859 233.995C258.801 233.968 258.743 233.942 258.685 233.916C258.601 233.878 258.518 233.841 258.435 233.806C258.373 233.779 258.311 233.754 258.25 233.729C258.164 233.695 258.079 233.66 257.993 233.628C257.941 233.608 257.888 233.588 257.836 233.569C257.741 233.535 257.646 233.502 257.552 233.471C257.509 233.456 257.466 233.442 257.423 233.428C257.334 233.399 257.246 233.372 257.158 233.347C257.096 233.329 257.035 233.311 256.974 233.294C256.908 233.276 256.843 233.26 256.778 233.244C256.702 233.225 256.626 233.207 256.551 233.19C256.498 233.179 256.445 233.168 256.393 233.157C256.31 233.141 256.228 233.124 256.146 233.11C256.07 233.097 255.994 233.087 255.919 233.076C255.87 233.069 255.822 233.062 255.773 233.056C255.674 233.043 255.576 233.035 255.478 233.026C255.441 233.023 255.404 233.019 255.367 233.017Z" fill="white"/>
<path d="M108.586 397C93.9383 397 81.0347 394.448 69.8748 389.344C58.7148 384.24 50.1124 377.164 44.0674 368.116C38.0225 358.837 35 348.165 35 336.101C35 325.893 37.0925 316.613 41.2775 308.261C45.6949 299.909 51.5074 293.298 58.7148 288.426C66.1548 283.554 74.2922 281.118 83.1272 281.118C91.2646 281.118 103.006 283.206 108.586 287.382C114.166 291.326 126.023 304.5 126.023 317.657C112 302 92.4271 307.333 85.2197 313.829C78.0122 320.093 74.4085 328.677 74.4085 339.581C74.4085 349.557 77.431 357.561 83.4759 363.592C89.5209 369.624 97.5421 372.64 107.539 372.64C119.862 372.64 129.976 368.58 137.881 360.461C146.018 352.109 150.087 341.669 150.087 329.141C150.087 318.237 147.064 307.913 141.019 298.169C134.974 288.426 125.907 276.594 113.817 262.674C101.262 248.29 91.7296 235.994 85.2197 225.787C78.9422 215.347 75.8035 203.979 75.8035 191.683C75.8035 179.619 79.1747 168.831 85.9171 159.32C92.6596 149.576 101.96 141.92 113.817 136.352C125.674 130.784 139.043 128 153.923 128C172.755 128 187.751 132.408 198.911 141.224C210.304 150.04 216 161.872 216 176.719C216 186.463 213.559 194.351 208.676 200.383C203.794 206.415 197.4 209.431 189.495 209.431C180.66 209.431 173.569 205.835 168.222 198.643C172.639 195.395 176.127 191.103 178.684 185.767C181.241 180.431 182.52 174.863 182.52 169.063C182.52 161.64 180.311 155.724 175.894 151.316C171.477 146.908 165.432 144.704 157.759 144.704C148.459 144.704 140.787 148.068 134.742 154.796C128.929 161.292 126.023 169.643 126.023 179.851C126.023 189.131 128.697 197.831 134.044 205.951C139.392 213.839 147.762 224.047 159.154 236.574C168.454 246.55 175.894 255.134 181.474 262.326C187.286 269.518 192.169 277.87 196.121 287.382C200.306 296.661 202.399 306.753 202.399 317.657C202.399 332.505 198.214 345.961 189.844 358.025C181.706 370.088 170.43 379.6 156.015 386.56C141.833 393.52 126.023 397 108.586 397Z" fill="#FFBA47"/>
<path d="M104 126.749C104 144.781 89.4493 159.399 71.5 159.399C53.5507 159.399 39 144.781 39 126.749C39 108.717 53.5507 94.0989 71.5 94.0989C89.4493 94.0989 104 108.717 104 126.749Z" fill="#D9D9D9"/>
<path d="M120.883 82.6502C120.883 100.682 106.332 115.3 88.3831 115.3C70.4339 115.3 55.8831 100.682 55.8831 82.6502C55.8831 64.618 70.4339 50 88.3831 50C106.332 50 120.883 64.618 120.883 82.6502Z" fill="#D9D9D9"/>
<path d="M169 94.523C169 112.555 154.449 127.173 136.5 127.173C118.551 127.173 104 112.555 104 94.523C104 76.4908 118.551 61.8728 136.5 61.8728C154.449 61.8728 169 76.4908 169 94.523Z" fill="#D9D9D9"/>
<path d="M79.5 180L68.9675 146.678L99.3571 97.9152H152.117L163 131L79.5 180Z" fill="#D9D9D9"/>
<path d="M113 111.749C113 129.781 98.4493 144.399 80.5 144.399C62.5507 144.399 48 129.781 48 111.749C48 93.7169 62.5507 79.0989 80.5 79.0989C98.4493 79.0989 113 93.7169 113 111.749Z" fill="white"/>
<path d="M129.883 67.6502C129.883 85.6824 115.332 100.3 97.3831 100.3C79.4339 100.3 64.8831 85.6824 64.8831 67.6502C64.8831 49.618 79.4339 35 97.3831 35C115.332 35 129.883 49.618 129.883 67.6502Z" fill="white"/>
<path d="M178 79.523C178 97.5552 163.449 112.173 145.5 112.173C127.551 112.173 113 97.5552 113 79.523C113 61.4908 127.551 46.8728 145.5 46.8728C163.449 46.8728 178 61.4908 178 79.523Z" fill="white"/>
<path d="M88.5 165L77.9675 131.678L108.357 82.9152H161.117L172 116L88.5 165Z" fill="white"/>
<path d="M211.854 196.434L173.397 192.586C173.397 192.586 157.294 215.941 107.192 210.928C69.3837 212.27 52.3316 179 52.3316 179C52.3316 179 71.9331 223.877 112.747 228.734C190.488 237.985 211.854 196.434 211.854 196.434Z" fill="#FFBA47"/>
<path d="M148.474 52C161.535 52 172.123 62.5882 172.123 75.6494C172.123 82.5055 169.204 88.6785 164.543 92.998C165.938 89.9822 166.718 86.6232 166.718 83.082C166.718 70.021 156.129 59.4328 143.068 59.4326C136.864 59.4326 131.218 61.8223 127 65.7305C130.751 57.6243 138.955 52 148.474 52Z" fill="#EEEEEE"/>
<path d="M80.4736 83C93.5349 83 104.123 93.5882 104.123 106.649C104.123 113.505 101.204 119.679 96.543 123.998C97.9378 120.982 98.7178 117.623 98.7178 114.082C98.7176 101.021 88.1294 90.4328 75.0684 90.4326C68.8643 90.4326 63.2184 92.8223 59 96.7305C62.7507 88.6243 70.9548 83 80.4736 83Z" fill="#EEEEEE"/>
<path d="M94.3383 39.6505C107.317 38.1867 119.025 47.5215 120.489 60.5004C121.258 67.3133 119.049 73.7746 114.901 78.5893C115.949 75.4361 116.348 72.0108 115.951 68.492C114.487 55.5133 102.779 46.1785 89.8001 47.6421C83.6352 48.3375 78.2927 51.3449 74.5389 55.7012C77.3574 47.2257 84.8795 40.7174 94.3383 39.6505Z" fill="#EEEEEE"/>
<path d="M328.423 335C320.843 335 315.046 333.161 311.033 329.484C307.02 325.696 305.014 320.403 305.014 313.606C305.014 310.263 305.404 307.088 306.184 304.079L325.281 224.843L350.027 221.5L340.796 254.606C343.917 252.712 346.481 251.486 348.487 250.929C350.494 250.261 352.5 249.926 354.506 249.926C367.66 249.926 374.237 259.453 374.237 278.507C374.237 286.195 372.732 294.441 369.722 303.244C366.824 311.935 361.919 319.4 355.008 325.64C348.208 331.88 339.347 335 328.423 335ZM337.786 318.788C341.242 318.788 344.474 316.67 347.484 312.436C350.494 308.091 352.89 302.742 354.674 296.391C356.457 289.928 357.349 283.744 357.349 277.839C357.349 273.381 356.569 269.593 355.008 266.473C353.447 263.353 351.274 261.793 348.487 261.793C346.815 261.793 344.92 262.072 342.802 262.629C340.796 263.075 339.402 263.799 338.622 264.802L329.426 307.255C329.091 308.592 328.924 309.873 328.924 311.099C328.924 316.225 331.878 318.788 337.786 318.788Z" fill="#FF6C00"/>
<path d="M404.891 334.666C396.642 334.666 390.121 332.549 385.328 328.314C380.535 324.08 378.138 317.395 378.138 308.258C378.138 300.681 379.699 292.268 382.82 283.02C385.941 273.771 390.957 265.805 397.868 259.119C404.78 252.322 413.474 248.924 423.952 248.924C438.22 248.924 445.354 257.838 445.354 275.666V275.833C445.689 275.944 446.302 276 447.194 276C450.872 276 455.108 275.053 459.901 273.159C464.694 271.153 469.042 268.757 472.943 265.972L474.448 270.484C471.215 273.939 466.98 276.891 461.74 279.343C456.613 281.683 450.984 283.354 444.853 284.357C443.961 294.497 441.676 303.355 437.997 310.932C434.319 318.509 429.582 324.359 423.785 328.482C417.989 332.604 411.691 334.666 404.891 334.666ZM411.579 319.623C414.254 319.623 416.93 318.119 419.605 315.111C422.28 311.991 424.621 307.812 426.628 302.575C428.634 297.227 430.083 291.321 430.975 284.858C427.965 284.19 426.46 281.85 426.46 277.839C426.46 273.27 428.188 270.262 431.644 268.813C431.421 265.136 430.863 262.629 429.972 261.292C429.08 259.843 427.519 259.119 425.29 259.119C421.611 259.119 418.044 261.793 414.589 267.142C411.133 272.49 408.347 278.897 406.229 286.363C404.111 293.828 403.052 300.402 403.052 306.085C403.052 311.433 403.665 315.055 404.891 316.949C406.117 318.732 408.347 319.623 411.579 319.623Z" fill="#FF6C00"/>
<path d="M465.327 250.428H489.405L487.231 260.79C491.021 257.448 494.421 254.885 497.431 253.102C500.552 251.319 503.896 250.428 507.463 250.428C511.03 250.428 513.817 251.653 515.823 254.105C517.941 256.556 519 259.509 519 262.963C519 266.195 517.941 269.036 515.823 271.487C513.705 273.939 510.751 275.164 506.961 275.164C504.509 275.164 502.837 274.607 501.945 273.493C501.165 272.267 500.552 270.54 500.106 268.312C499.772 266.863 499.437 265.805 499.103 265.136C498.768 264.467 498.155 264.133 497.263 264.133C494.923 264.133 492.916 264.635 491.244 265.637C489.684 266.529 487.621 268.144 485.058 270.484L471.681 333.997H447.604L465.327 250.428Z" fill="#FF6C00"/>
<path d="M482.805 362.082C482.935 362.591 483 363.079 483 363.545C483 365.03 482.415 366.43 481.245 367.745C480.118 369.061 478.687 369.994 476.954 370.545C476.217 370.758 475.35 370.864 474.353 370.864C473.963 374.47 472.858 377.652 471.037 380.409C469.26 383.124 466.919 385.245 464.015 386.773C461.111 388.258 457.861 389 454.263 389C450.146 389 446.895 387.982 444.511 385.945C442.17 383.909 441 381.152 441 377.673C441 375.339 441.52 373.048 442.56 370.8C443.644 368.509 445.096 366.536 446.916 364.882C448.78 363.227 450.817 362.082 453.028 361.445V361.191C451.684 360.088 450.731 358.921 450.167 357.691C449.604 356.461 449.322 354.933 449.322 353.109C449.322 350.818 449.95 348.676 451.207 346.682C452.508 344.645 454.241 343.033 456.409 341.845C458.619 340.615 461.003 340 463.56 340C466.508 340 468.935 340.827 470.842 342.482C472.749 344.136 473.703 346.236 473.703 348.782C473.703 350.521 473.248 351.942 472.337 353.045C471.427 354.148 470.235 354.7 468.762 354.7C467.115 354.7 465.793 354.042 464.796 352.727C465.576 352.261 466.204 351.539 466.681 350.564C467.201 349.588 467.461 348.548 467.461 347.445C467.461 346.258 467.158 345.324 466.551 344.645C465.944 343.967 465.121 343.627 464.081 343.627C462.954 343.627 461.87 344.052 460.83 344.9C459.789 345.748 458.944 346.894 458.294 348.336C457.687 349.736 457.384 351.221 457.384 352.791C457.384 354.912 457.969 356.715 459.139 358.2C460.31 359.642 461.913 360.618 463.95 361.127V361.382C461.913 361.764 459.985 362.697 458.164 364.182C456.387 365.624 454.957 367.406 453.873 369.527C452.833 371.606 452.313 373.727 452.313 375.891C452.313 378.097 452.876 379.815 454.003 381.045C455.13 382.276 456.69 382.891 458.684 382.891C460.548 382.891 462.39 382.382 464.211 381.364C466.031 380.345 467.591 378.924 468.892 377.1C470.192 375.276 471.059 373.218 471.492 370.927C470.539 370.927 469.542 371.055 468.502 371.309C466.118 372.073 464.406 373.197 463.365 374.682L463.17 374.745C462.694 374.152 462.303 373.388 462 372.455C461.827 371.945 461.74 371.394 461.74 370.8C461.74 369.358 462.26 368.064 463.3 366.918C464.341 365.773 465.641 364.967 467.201 364.5C468.415 364.161 470.084 363.906 472.207 363.736C473.638 363.652 474.873 363.503 475.913 363.291C476.91 362.994 477.907 362.506 478.904 361.827C479.944 361.106 480.724 360.406 481.245 359.727H481.375C482.025 360.364 482.502 361.148 482.805 362.082Z" fill="#FFBA47"/>
<path d="M222.59 433C216.993 433 212.328 431.081 208.597 427.244C204.866 423.407 203 417.405 203 409.238C203 401.957 204.424 394.331 207.271 386.361C210.217 378.293 214.538 371.504 220.233 365.994C226.027 360.386 232.9 357.581 240.854 357.581C244.88 357.581 247.875 358.27 249.839 359.648C251.803 361.025 252.785 362.845 252.785 365.108V366.142L254.405 358.319H275.615L265.01 408.5C264.617 409.976 264.421 411.55 264.421 413.223C264.421 417.454 266.434 419.569 270.46 419.569C273.209 419.569 275.566 418.29 277.53 415.732C279.592 413.174 281.212 409.828 282.39 405.696H288.577C284.943 416.322 280.426 423.554 275.026 427.392C269.723 431.131 264.372 433 258.971 433C254.847 433 251.508 431.868 248.955 429.605C246.5 427.244 245.027 423.849 244.536 419.422C241.689 423.456 238.497 426.752 234.962 429.31C231.526 431.77 227.401 433 222.59 433ZM232.164 418.684C234.619 418.684 237.024 417.552 239.381 415.289C241.836 412.928 243.505 409.73 244.389 405.696L251.459 372.34C251.459 371.061 250.968 369.831 249.986 368.651C249.004 367.371 247.482 366.732 245.42 366.732C241.492 366.732 237.957 369.044 234.815 373.669C231.673 378.195 229.218 383.705 227.45 390.199C225.683 396.594 224.799 402.252 224.799 407.172C224.799 412.091 225.487 415.24 226.861 416.617C228.334 417.995 230.102 418.684 232.164 418.684Z" fill="#FF6C00"/>
<path d="M292.46 358.319H313.67L311.756 367.47C315.094 364.518 318.089 362.255 320.74 360.681C323.49 359.106 326.436 358.319 329.578 358.319C332.72 358.319 335.175 359.402 336.943 361.566C338.808 363.731 339.741 366.338 339.741 369.389C339.741 372.242 338.808 374.751 336.943 376.916C335.077 379.08 332.475 380.163 329.136 380.163C326.976 380.163 325.503 379.671 324.717 378.687C324.03 377.604 323.49 376.079 323.097 374.111C322.802 372.832 322.508 371.898 322.213 371.307C321.919 370.717 321.379 370.422 320.593 370.422C318.531 370.422 316.764 370.864 315.291 371.75C313.916 372.537 312.099 373.964 309.841 376.03L298.057 432.114H276.847L292.46 358.319Z" fill="#FF6C00"/>
<path d="M352.405 433C347.691 433 343.862 431.524 340.916 428.572C338.068 425.62 336.645 421.193 336.645 415.289C336.645 412.829 337.037 409.632 337.823 405.696L346.66 364.223H341.8L342.978 358.319H347.839L352.257 337.952L374.057 335L369.049 358.319H377.886L376.708 364.223H367.87L358.444 408.5C358.051 409.976 357.855 411.55 357.855 413.223C357.855 415.191 358.296 416.617 359.18 417.503C360.162 418.29 361.733 418.684 363.893 418.684C366.741 418.684 369.392 417.503 371.847 415.142C374.302 412.682 376.07 409.533 377.15 405.696H383.336C379.703 416.322 375.039 423.554 369.343 427.392C363.648 431.131 358.002 433 352.405 433Z" fill="#FF6C00"/>
<path d="M397.859 433C390.691 433 385.094 431.131 381.068 427.392C377.042 423.554 375.029 417.601 375.029 409.533C375.029 402.744 376.355 395.266 379.006 387.099C381.657 378.933 385.978 371.898 391.968 365.994C397.957 359.992 405.568 356.991 414.798 356.991C425.599 356.991 431 361.714 431 371.16C431 376.67 429.429 381.737 426.287 386.361C423.144 390.986 418.971 394.725 413.767 397.578C408.563 400.333 403.015 401.908 397.123 402.301C396.926 404.466 396.828 405.942 396.828 406.729C396.828 414.896 399.872 418.979 405.96 418.979C408.71 418.979 411.656 418.241 414.798 416.765C417.94 415.289 420.788 413.42 423.341 411.157C420.69 425.719 412.196 433 397.859 433ZM398.154 395.217C401.885 395.118 405.371 393.889 408.612 391.527C411.95 389.166 414.601 386.165 416.565 382.524C418.627 378.785 419.659 374.899 419.659 370.864C419.659 366.83 418.431 364.813 415.976 364.813C412.539 364.813 409.103 367.962 405.666 374.259C402.327 380.458 399.823 387.444 398.154 395.217Z" fill="#FF6C00"/>
<path d="M289.873 327.604C282.387 337.326 242.461 337.604 226.935 327.604C211.408 317.605 220.835 302.05 220.835 302.05C224.994 279.274 237.748 253.165 249.393 236.222C261.038 219.278 292.369 273.719 296.25 293.718C300.132 313.716 297.359 317.883 289.873 327.604Z" fill="#FFA42F"/>
<path d="M235.53 316.771C246.227 317.882 252.932 319.827 265.197 323.715C277.462 327.604 277.462 333.476 277.462 333.476C262.213 336.696 238.177 334.845 226.935 327.604C218.371 322.089 217.399 314.885 218.249 309.532C218.249 309.532 224.833 315.661 235.53 316.771Z" fill="#F18A0A"/>
<path d="M249.393 236.222C252.494 231.709 256.992 232.26 261.995 235.875C261.995 235.875 264.088 255.387 249.393 268.164C234.698 280.941 224.833 286.328 224.833 286.328C230.673 267.999 240.366 249.356 249.393 236.222Z" fill="#F18A0A"/>
</svg>
